G04 Layer: BottomLayer*
G04 EasyEDA v6.4.19.5, 2021-05-27T17:32:06+08:00*
G04 33a6c8c822a742f28e1fac3212fc467e,cef4b8211a074a3184fc3ad01c494734,10*
G04 Gerber Generator version 0.2*
G04 Scale: 100 percent, Rotated: No, Reflected: No *
G04 Dimensions in millimeters *
G04 leading zeros omitted , absolute positions ,4 integer and 5 decimal *
%FSLAX45Y45*%
%MOMM*%

%ADD11C,1.5000*%
%ADD12C,0.5000*%
%ADD13C,2.0000*%
%ADD14C,1.0000*%
%ADD15C,1.1999*%
%ADD16C,0.7000*%
%ADD28R,1.5200X1.5200*%
%ADD29C,1.5200*%
%ADD30R,2.5000X2.5000*%
%ADD31C,2.5000*%
%ADD32R,1.5000X1.5000*%
%ADD33R,2.2000X2.5000*%
%ADD34C,2.2000*%
%ADD35R,1.3000X1.3000*%
%ADD36C,1.3000*%

%LPD*%
G36*
X4380992Y-379476D02*
G01*
X4376420Y-377444D01*
X4368292Y-375412D01*
X4359656Y-374904D01*
X4293616Y-374904D01*
X4309364Y-359156D01*
X4323080Y-332740D01*
X4327652Y-303276D01*
X4323080Y-273812D01*
X4309364Y-247396D01*
X4288536Y-226567D01*
X4262120Y-212852D01*
X4232656Y-208279D01*
X4203192Y-212852D01*
X4176776Y-226567D01*
X4155948Y-247396D01*
X4142232Y-273812D01*
X4137660Y-303276D01*
X4142232Y-332740D01*
X4155948Y-359156D01*
X4171696Y-374904D01*
X4039615Y-374904D01*
X4055364Y-359156D01*
X4069079Y-332740D01*
X4073651Y-303276D01*
X4069079Y-273812D01*
X4055364Y-247396D01*
X4034536Y-226567D01*
X4008120Y-212852D01*
X3978656Y-208279D01*
X3949192Y-212852D01*
X3922776Y-226567D01*
X3901948Y-247396D01*
X3888232Y-273812D01*
X3883660Y-303276D01*
X3888232Y-332740D01*
X3901948Y-359156D01*
X3917696Y-374904D01*
X3791712Y-374904D01*
X3600196Y-140208D01*
X2304796Y-135128D01*
X2035048Y-135128D01*
X2035048Y154940D01*
X1785112Y160020D01*
X1785112Y399796D01*
X1790192Y759968D01*
X3509772Y999744D01*
X3885184Y1230376D01*
X3883660Y1220724D01*
X3888232Y1191260D01*
X3901948Y1164844D01*
X3922776Y1144016D01*
X3949192Y1130300D01*
X3978656Y1125728D01*
X4008120Y1130300D01*
X4034536Y1144016D01*
X4055364Y1164844D01*
X4069079Y1191260D01*
X4073651Y1220724D01*
X4069079Y1250188D01*
X4055364Y1276604D01*
X4034536Y1297432D01*
X4012692Y1308608D01*
X4169664Y1405128D01*
X4176776Y1398016D01*
X4203192Y1384300D01*
X4232656Y1379728D01*
X4262120Y1384300D01*
X4288536Y1398016D01*
X4309364Y1418844D01*
X4323080Y1445260D01*
X4327652Y1474724D01*
X4323588Y1500124D01*
X4404868Y1549908D01*
X4429252Y1549908D01*
X4409948Y1530604D01*
X4396232Y1504188D01*
X4391660Y1474724D01*
X4396232Y1445260D01*
X4409948Y1418844D01*
X4430776Y1398016D01*
X4457192Y1384300D01*
X4486656Y1379728D01*
X4516120Y1384300D01*
X4542536Y1398016D01*
X4563364Y1418844D01*
X4577080Y1445260D01*
X4581652Y1474724D01*
X4577080Y1504188D01*
X4563364Y1530604D01*
X4544060Y1549908D01*
X4870196Y1549908D01*
X4869688Y-374904D01*
X4544568Y-377952D01*
X4563364Y-359156D01*
X4577080Y-332740D01*
X4581652Y-303276D01*
X4577080Y-273812D01*
X4563364Y-247396D01*
X4542536Y-226567D01*
X4516120Y-212852D01*
X4486656Y-208279D01*
X4457192Y-212852D01*
X4430776Y-226567D01*
X4409948Y-247396D01*
X4396232Y-273812D01*
X4391660Y-303276D01*
X4396232Y-332740D01*
X4409948Y-359156D01*
X4429760Y-378968D01*
G37*

%LPD*%
G36*
X1364996Y-1705000D02*
G01*
X1364996Y-2299970D01*
X2020011Y-2299970D01*
X2020011Y-2150008D01*
X1599996Y-1705000D01*
G37*
G36*
X754989Y14985D02*
G01*
X635000Y-284988D01*
X635000Y-470001D01*
X864971Y-524967D01*
X919987Y-805027D01*
X1059992Y-1499971D01*
X1099972Y-1845005D01*
X1099972Y-2250033D01*
X1150010Y-2299970D01*
X1999996Y-2299970D01*
X1999996Y-2145030D01*
X1599996Y-1705000D01*
X1369974Y-1454962D01*
X1324965Y-1305001D01*
X1045006Y-284988D01*
X894994Y-140004D01*
G37*
G36*
X414985Y-1480007D02*
G01*
X249986Y-1525016D01*
X359968Y-1589989D01*
G37*
G36*
X105003Y-1474978D02*
G01*
X99974Y-1550009D01*
X144983Y-1589989D01*
X210007Y-1589989D01*
X249986Y-1525016D01*
G37*
G36*
X411988Y-1635506D02*
G01*
X115011Y-1640027D01*
X154990Y-1675028D01*
X372110Y-1675384D01*
G37*
G36*
X1799996Y759968D02*
G01*
X1655013Y620014D01*
X1659991Y-1029969D01*
X2634996Y-1874977D01*
X2639974Y-2454960D01*
X3040024Y-2454960D01*
X3040024Y-1745030D01*
X2049983Y-870000D01*
X2045004Y759968D01*
G37*
G36*
X2735072Y2154936D02*
G01*
X2735072Y1400048D01*
X3300018Y1399997D01*
X3739997Y1849983D01*
X3739896Y2154936D01*
G37*
D12*
X2180336Y-760221D02*
G01*
X2180336Y-724992D01*
X3634968Y-724992D01*
X3849979Y-940003D01*
X4481880Y-940003D01*
X4486909Y-934973D01*
D11*
X5336031Y-318007D02*
G01*
X5844031Y-318007D01*
X5336031Y-572007D02*
G01*
X5844031Y-572007D01*
X5336031Y-826007D02*
G01*
X5844031Y-826007D01*
X5336031Y-1080007D02*
G01*
X5844031Y-1080007D01*
X5336031Y-1334007D02*
G01*
X5844031Y-1334007D01*
X5336031Y-1588007D02*
G01*
X5844031Y-1588007D01*
X5336031Y-1842007D02*
G01*
X5844031Y-1842007D01*
X5336031Y800862D02*
G01*
X5844031Y800862D01*
X5336031Y546862D02*
G01*
X5844031Y546862D01*
X5336031Y292862D02*
G01*
X5844031Y292862D01*
X5336031Y38862D02*
G01*
X5844031Y38862D01*
X4740909Y1474978D02*
G01*
X4740909Y-303021D01*
X4740909Y-557021D02*
G01*
X4740909Y-2335021D01*
D13*
X810005Y1449831D02*
G01*
X810005Y1099997D01*
X930071Y979931D01*
X1120139Y979931D01*
X810005Y1054862D02*
G01*
X775207Y1054862D01*
X400050Y679704D01*
X1120139Y979931D02*
G01*
X700278Y979931D01*
X582676Y862329D01*
X729995Y-383031D02*
G01*
X729995Y1009650D01*
X775207Y1054862D01*
X400050Y679704D02*
G01*
X620268Y679704D01*
X729995Y569976D01*
X729995Y784860D02*
G01*
X925068Y979931D01*
X1120139Y979931D01*
D11*
X4486909Y-557021D02*
G01*
X4486909Y-1319021D01*
X4486909Y-1573021D02*
G01*
X4486909Y-2335021D01*
D12*
X2180336Y-690118D02*
G01*
X2185466Y-684987D01*
X4159986Y-684987D01*
X4486859Y-684987D01*
X4486909Y-685037D01*
X4350004Y-685037D02*
G01*
X4358893Y-685037D01*
X4486909Y-557021D01*
X4350004Y-685037D02*
G01*
X4360925Y-685037D01*
X4486909Y-811021D01*
X4350004Y-940054D02*
G01*
X4357877Y-940054D01*
X4486909Y-811021D01*
X4350004Y-940054D02*
G01*
X4361941Y-940054D01*
X4486909Y-1065021D01*
X3670300Y-760221D02*
G01*
X3670300Y-1005306D01*
X3854983Y-1189989D01*
X3859987Y-1194993D01*
X4099991Y-1194993D01*
X4481906Y-1194993D01*
X4486909Y-1189989D01*
X4344924Y-1195070D02*
G01*
X4356861Y-1195070D01*
X4486909Y-1065021D01*
X4350004Y-1195070D02*
G01*
X4362958Y-1195070D01*
X4486909Y-1319021D01*
X4486909Y-557021D02*
G01*
X4359884Y-429996D01*
X3744975Y-429996D01*
X3675125Y-499846D01*
X3675125Y-685037D01*
X3675125Y-605028D02*
G01*
X3595115Y-685037D01*
X3539997Y-685037D01*
X3675125Y-599947D02*
G01*
X3760215Y-685037D01*
X3865118Y-685037D01*
X3670300Y-839978D02*
G01*
X3749802Y-839978D01*
X3774947Y-865123D01*
X3674694Y-865073D02*
G01*
X3704691Y-834847D01*
X3670300Y-760221D02*
G01*
X3670300Y-659892D01*
X3675125Y-655065D01*
X3760215Y-685037D02*
G01*
X3745484Y-685037D01*
X3670300Y-760221D01*
X3760215Y-685037D02*
G01*
X3724986Y-720267D01*
X3724986Y-829995D01*
X2355087Y-724915D02*
G01*
X2250439Y-620268D01*
X2250186Y-620268D01*
X3260090Y-1085087D02*
G01*
X3290087Y-1055090D01*
X3680002Y-1445005D01*
X4358893Y-1445005D01*
X4486909Y-1573021D01*
X3260090Y-1085087D02*
G01*
X3874998Y-1699996D01*
X3954983Y-1699996D01*
X4486884Y-1699996D01*
X4486909Y-1700021D01*
X4370070Y-1700021D02*
G01*
X4370070Y-1689862D01*
X4486909Y-1573021D01*
X4359909Y-1700021D02*
G01*
X4486909Y-1827021D01*
X3189986Y-1085087D02*
G01*
X3650005Y-1545107D01*
X3650005Y-1729994D01*
X3650005Y-1755012D01*
X3849979Y-1954987D01*
X4486859Y-1954987D01*
X4486909Y-1955037D01*
X4359909Y-1955037D02*
G01*
X4359909Y-1954021D01*
X4486909Y-1827021D01*
X4370070Y-1955037D02*
G01*
X4370070Y-1964181D01*
X4486909Y-2081021D01*
X3605022Y-1500123D02*
G01*
X3605022Y-1960041D01*
X3849979Y-2204999D01*
X4486909Y-2204999D01*
X4355084Y-2204973D02*
G01*
X4362958Y-2204973D01*
X4486909Y-2081021D01*
X4355084Y-2204973D02*
G01*
X4356861Y-2204973D01*
X4486909Y-2335021D01*
X3679952Y-1445005D02*
G01*
X3679952Y-2034794D01*
X3690111Y-2044954D01*
X3762502Y-1867407D02*
G01*
X3627627Y-1867407D01*
X3605022Y-1890013D01*
X3729990Y-1445005D02*
G01*
X3729990Y-1554987D01*
X3752595Y-1577594D01*
X3762502Y-1587500D02*
G01*
X3712463Y-1587500D01*
X3679952Y-1620012D01*
X3795013Y-1445005D02*
G01*
X3780027Y-1445005D01*
X3700018Y-1525015D01*
X3737559Y-1842439D02*
G01*
X3669995Y-1910003D01*
D15*
X3978909Y-557021D02*
G01*
X4232909Y-557021D01*
X3978909Y-811021D02*
G01*
X4232909Y-811021D01*
X3978909Y-1065021D02*
G01*
X4232909Y-1065021D01*
X3978909Y-1319021D02*
G01*
X4232909Y-1319021D01*
X3978909Y-1573021D02*
G01*
X4232909Y-1573021D01*
X3978909Y-1827021D02*
G01*
X4232909Y-1827021D01*
X3978909Y-2081021D02*
G01*
X4232909Y-2081021D01*
X3978909Y-2335021D02*
G01*
X4232909Y-2335021D01*
X2034844Y-189992D02*
G01*
X2134666Y-89915D01*
D12*
X2355087Y-724915D02*
G01*
X2315210Y-724915D01*
X2250186Y-760221D01*
X2250186Y-760221D01*
D14*
X249936Y-1599945D02*
G01*
X139954Y-1599945D01*
X70002Y-1529994D01*
X70002Y-640003D01*
X119887Y-640079D01*
X249936Y-1599945D02*
G01*
X379984Y-1599945D01*
X445007Y-1534921D01*
X445007Y-869950D01*
X119989Y-544220D01*
X70104Y-810005D02*
G01*
X145287Y-734821D01*
X310134Y-734821D01*
D16*
X649986Y-1890013D02*
G01*
X649986Y-1369821D01*
X649986Y-850392D02*
G01*
X649986Y-919987D01*
X649986Y-919987D02*
G01*
X649986Y-1154988D01*
X934973Y-1439976D01*
X934973Y-1890013D01*
X934973Y-1890013D02*
G01*
X934973Y-2344978D01*
X995121Y-2405126D01*
X2765043Y-2405126D01*
X2599943Y-2405126D02*
G01*
X2675127Y-2329942D01*
X2690113Y-2329942D01*
D13*
X5620004Y1729994D02*
G01*
X3919727Y1729994D01*
X3409950Y1219962D01*
X1854962Y1219962D01*
X1474978Y839978D01*
X1474978Y-1115060D01*
X2499868Y-2139950D01*
X2839974Y-2139950D01*
X2839974Y-2104897D01*
X2549906Y-2139950D02*
G01*
X2649981Y-2139950D01*
X2839974Y-2329942D01*
X2569972Y-2139950D02*
G01*
X2630043Y-2139950D01*
X2827477Y-1942541D01*
X2839974Y-1955037D01*
D11*
X5336031Y800100D02*
G01*
X5167629Y800100D01*
X5074920Y894079D01*
X5074920Y1719834D01*
X5085079Y1729739D01*
X5074920Y1540002D02*
G01*
X5074920Y1595120D01*
X4940045Y1729994D01*
X5074920Y1560068D02*
G01*
X5074920Y1599945D01*
X5204968Y1729994D01*
X5074920Y1061973D02*
G01*
X5074920Y380060D01*
X5162118Y292862D01*
X5336031Y292862D01*
X5336031Y800862D02*
G01*
X5100827Y800862D01*
X5074920Y774954D01*
X5336031Y800862D02*
G01*
X5190743Y800862D01*
X5074920Y685037D01*
D12*
X729995Y-383031D02*
G01*
X1024991Y-678027D01*
X1024991Y-834999D01*
X1129995Y-940003D01*
X1129995Y-1380007D01*
X1450339Y-1700352D01*
X1450339Y-1885187D01*
D13*
X5620004Y1229360D02*
G01*
X5874994Y1485849D01*
X5874994Y1869871D01*
X5760110Y1985010D01*
X5500115Y1985010D01*
X5139943Y2344928D01*
X935228Y2344928D01*
X119887Y1529079D01*
X119887Y-640079D01*
G36*
X3614927Y-1754886D02*
G01*
X3664965Y-1754886D01*
X3664965Y-1989836D01*
X3614927Y-1989836D01*
G37*
G36*
X2145029Y-584962D02*
G01*
X2299969Y-584962D01*
X2299969Y-800100D01*
X2145029Y-800100D01*
G37*
G36*
X3150108Y-834897D02*
G01*
X3305048Y-834897D01*
X3305048Y-1124965D01*
X3150108Y-1124965D01*
G37*
G36*
X1605026Y2149855D02*
G01*
X2614929Y2149855D01*
X2614929Y1394968D01*
X1605026Y1394968D01*
G37*
D28*
G01*
X5336031Y-318007D03*
D29*
G01*
X5590031Y-318007D03*
G01*
X5844031Y-318007D03*
G01*
X5336031Y-572007D03*
G01*
X5590031Y-572007D03*
G01*
X5844031Y-572007D03*
G01*
X5336031Y-826007D03*
G01*
X5590031Y-826007D03*
G01*
X5844031Y-826007D03*
G01*
X5336031Y-1080007D03*
G01*
X5590031Y-1080007D03*
G01*
X5844031Y-1080007D03*
G01*
X5336031Y-1334007D03*
G01*
X5590031Y-1334007D03*
G01*
X5844031Y-1334007D03*
G01*
X5336031Y-1588007D03*
G01*
X5590031Y-1588007D03*
G01*
X5844031Y-1588007D03*
G01*
X5336031Y-1842007D03*
G01*
X5590031Y-1842007D03*
G01*
X5844031Y-1842007D03*
D28*
G01*
X5336031Y800862D03*
D29*
G01*
X5590031Y800862D03*
G01*
X5844031Y800862D03*
G01*
X5336031Y546862D03*
G01*
X5590031Y546862D03*
G01*
X5844031Y546862D03*
G01*
X5336031Y292862D03*
G01*
X5590031Y292862D03*
G01*
X5844031Y292862D03*
G01*
X5336031Y38862D03*
G01*
X5590031Y38862D03*
G01*
X5844031Y38862D03*
G36*
X4484903Y2214905D02*
G01*
X4734890Y2214905D01*
X4734890Y1964918D01*
X4484903Y1964918D01*
G37*
D31*
G01*
X4109974Y2089912D03*
D30*
G01*
X5620004Y1230071D03*
D31*
G01*
X5620004Y1729994D03*
D32*
G01*
X729995Y-383031D03*
D11*
G01*
X729995Y-637031D03*
D33*
G01*
X400050Y679704D03*
D34*
G01*
X400050Y179831D03*
D35*
G01*
X4740909Y1474978D03*
D36*
G01*
X4486909Y1474978D03*
G01*
X4232909Y1474978D03*
G01*
X3978909Y1474978D03*
G01*
X4740909Y1220978D03*
G01*
X4486909Y1220978D03*
G01*
X4232909Y1220978D03*
G01*
X3978909Y1220978D03*
G01*
X4740909Y966978D03*
G01*
X4486909Y966978D03*
G01*
X4232909Y966978D03*
G01*
X3978909Y966978D03*
G01*
X4740909Y712978D03*
G01*
X4486909Y712978D03*
G01*
X4232909Y712978D03*
G01*
X3978909Y712978D03*
G01*
X4740909Y458978D03*
G01*
X4486909Y458978D03*
G01*
X4232909Y458978D03*
G01*
X3978909Y458978D03*
G01*
X4232909Y-811021D03*
G01*
X4486909Y-811021D03*
G01*
X4740909Y-811021D03*
G01*
X3978909Y-557021D03*
G01*
X4232909Y-557021D03*
G01*
X4486909Y-557021D03*
G01*
X4740909Y-557021D03*
G01*
X3978909Y-303021D03*
G01*
X4232909Y-303021D03*
G01*
X4486909Y-303021D03*
G01*
X4740909Y-303021D03*
G01*
X3978909Y-49021D03*
G01*
X4232909Y-49021D03*
G01*
X4486909Y-49021D03*
G01*
X4740909Y-49021D03*
G01*
X3978909Y204978D03*
G01*
X4232909Y204978D03*
G01*
X4486909Y204978D03*
G01*
X4740909Y204978D03*
G01*
X3978909Y-811021D03*
G01*
X4740909Y-1065021D03*
G01*
X4486909Y-1065021D03*
G01*
X4232909Y-1065021D03*
G01*
X3978909Y-1065021D03*
G01*
X4740909Y-1319021D03*
G01*
X4486909Y-1319021D03*
G01*
X4232909Y-1319021D03*
G01*
X3978909Y-1319021D03*
G01*
X4740909Y-1573021D03*
G01*
X4486909Y-1573021D03*
G01*
X4232909Y-1573021D03*
G01*
X3978909Y-1573021D03*
G01*
X4740909Y-1827021D03*
G01*
X4486909Y-1827021D03*
G01*
X4232909Y-1827021D03*
G01*
X3978909Y-1827021D03*
G01*
X4740909Y-2081021D03*
G01*
X4486909Y-2081021D03*
G01*
X4232909Y-2081021D03*
G01*
X3978909Y-2081021D03*
G01*
X4740909Y-2335021D03*
G01*
X4486909Y-2335021D03*
G01*
X4232909Y-2335021D03*
G01*
X3978909Y-2335021D03*
D11*
G01*
X249936Y-1200150D03*
G01*
X249936Y-1400047D03*
G01*
X249936Y-1599945D03*
D16*
G01*
X3260090Y-875284D03*
G01*
X3260090Y-945134D03*
G01*
X3260090Y-1015237D03*
G01*
X3260090Y-1085087D03*
G01*
X3189986Y-1085087D03*
G01*
X3189986Y-1014984D03*
G01*
X3189986Y-945134D03*
G01*
X3189986Y-875029D03*
G01*
X2250186Y-620268D03*
G01*
X2250186Y-690118D03*
G01*
X2250186Y-760221D03*
G01*
X2180336Y-760221D03*
G01*
X2180336Y-690118D03*
G01*
X2180336Y-620268D03*
G01*
X2614929Y715010D03*
G01*
X2544572Y715263D03*
G01*
X2754884Y-55118D03*
G01*
X2754884Y20065D03*
G01*
X2754884Y94995D03*
G01*
X2754884Y169926D03*
G01*
X2754884Y245110D03*
G01*
X2754884Y320039D03*
G01*
X2679954Y-55118D03*
G01*
X2605024Y-55118D03*
G01*
X2679954Y20065D03*
G01*
X2605024Y20065D03*
G01*
X2679954Y94995D03*
G01*
X2605024Y94995D03*
G01*
X2679954Y169926D03*
G01*
X2605024Y169926D03*
G01*
X2679954Y245110D03*
G01*
X2605024Y245110D03*
G01*
X2530093Y245110D03*
G01*
X2454909Y245110D03*
G01*
X2379979Y245110D03*
G01*
X2305050Y245110D03*
G01*
X2230120Y245110D03*
G01*
X2154936Y245110D03*
G01*
X2080005Y245110D03*
G01*
X1830323Y694944D03*
G01*
X1830070Y620013D03*
G01*
X1830070Y545084D03*
G01*
X1830070Y469900D03*
G01*
X1830070Y394970D03*
G01*
X1830070Y320039D03*
G01*
X1830070Y245110D03*
G01*
X2679954Y320039D03*
G01*
X3094990Y-55118D03*
G01*
X3169920Y-55118D03*
G01*
X3245104Y-55118D03*
G01*
X3094990Y20065D03*
G01*
X3169920Y20065D03*
G01*
X3245104Y20065D03*
G01*
X3095243Y264921D03*
G01*
X3095243Y339852D03*
G01*
X3170174Y339852D03*
G01*
X3170174Y414781D03*
G01*
X3095243Y414781D03*
G01*
X3095243Y489712D03*
G01*
X3170174Y489712D03*
G01*
X3095243Y564895D03*
G01*
X3095243Y639826D03*
G01*
X3095243Y714755D03*
G01*
X3020313Y714755D03*
G01*
X3020313Y639826D03*
G01*
X2945129Y714755D03*
G01*
X2690113Y-1880107D03*
G01*
X2690113Y-1955037D03*
G01*
X2690113Y-2029968D03*
G01*
X2690113Y-2104897D03*
G01*
X2690113Y-2180081D03*
G01*
X2690113Y-2255012D03*
G01*
X2690113Y-2329942D03*
G01*
X2690113Y-2405126D03*
G01*
X2765043Y-2405126D03*
G01*
X2839974Y-2405126D03*
G01*
X2914904Y-2405126D03*
G01*
X2990088Y-2405126D03*
G01*
X2990088Y-2329942D03*
G01*
X2914904Y-2329942D03*
G01*
X2839974Y-2329942D03*
G01*
X2765043Y-2329942D03*
G01*
X2765043Y-2255012D03*
G01*
X2839974Y-2255012D03*
G01*
X2914904Y-2255012D03*
G01*
X2990088Y-2255012D03*
G01*
X2990088Y-2180081D03*
G01*
X2914904Y-2180081D03*
G01*
X2839974Y-2180081D03*
G01*
X2765043Y-2180081D03*
G01*
X2765043Y-2104897D03*
G01*
X2839974Y-2104897D03*
G01*
X2914904Y-2104897D03*
G01*
X2990088Y-2104897D03*
G01*
X2990088Y-2029968D03*
G01*
X2914904Y-2029968D03*
G01*
X2839974Y-2029968D03*
G01*
X2765043Y-2029968D03*
G01*
X2765043Y-1955037D03*
G01*
X2839974Y-1955037D03*
G01*
X2914904Y-1955037D03*
G01*
X2990088Y-1955037D03*
G01*
X2765043Y-1880107D03*
G01*
X2839974Y-1880107D03*
G01*
X2914904Y-1880107D03*
G01*
X2990088Y-1880107D03*
G01*
X649986Y-850392D03*
G01*
X649986Y-919987D03*
G01*
X649986Y-1369821D03*
G01*
X649986Y-1890013D03*
G01*
X934973Y-1830070D03*
G01*
X934973Y-1890013D03*
G01*
X1450339Y-1810257D03*
G01*
X1525270Y-1810257D03*
G01*
X1450339Y-1885187D03*
G01*
X1450339Y-1960118D03*
G01*
X1450339Y-2035047D03*
G01*
X1450339Y-2110231D03*
G01*
X1450339Y-2185162D03*
G01*
X1525015Y-1884934D03*
G01*
X1525015Y-1960118D03*
G01*
X1525015Y-2035047D03*
G01*
X1525015Y-2109978D03*
G01*
X1525015Y-2184907D03*
G01*
X1599945Y-2184907D03*
G01*
X1675129Y-2184907D03*
G01*
X1750060Y-2184907D03*
G01*
X1824989Y-2184907D03*
G01*
X1899920Y-2184907D03*
G01*
X1599945Y-2109978D03*
G01*
X1675129Y-2109978D03*
G01*
X1750060Y-2109978D03*
G01*
X1824989Y-2109978D03*
G01*
X1599945Y-2035047D03*
G01*
X1675129Y-2035047D03*
G01*
X1750060Y-2035047D03*
G01*
X1599945Y-1960118D03*
G01*
X1675129Y-1960118D03*
G01*
X1599945Y-1884934D03*
G01*
X1714245Y2054860D03*
G01*
X1794255Y2054605D03*
G01*
X1874012Y2054605D03*
G01*
X1954021Y2054860D03*
G01*
X2035047Y2054860D03*
G01*
X2114804Y2054860D03*
G01*
X2194813Y2054860D03*
G01*
X2274823Y2054860D03*
G01*
X2354834Y2054860D03*
G01*
X2434844Y2054860D03*
G01*
X2514600Y2054605D03*
G01*
X1713737Y1975104D03*
G01*
X1793747Y1974850D03*
G01*
X1873504Y1974850D03*
G01*
X1953513Y1974850D03*
G01*
X2034794Y1975104D03*
G01*
X2114550Y1975104D03*
G01*
X2194560Y1975104D03*
G01*
X2274570Y1975104D03*
G01*
X2354579Y1975104D03*
G01*
X2434336Y1974850D03*
G01*
X2514091Y1974850D03*
G01*
X1713992Y1894839D03*
G01*
X1793747Y1894839D03*
G01*
X1873757Y1894839D03*
G01*
X1953513Y1894839D03*
G01*
X2034794Y1894839D03*
G01*
X2114550Y1894839D03*
G01*
X2194560Y1894839D03*
G01*
X2274570Y1894839D03*
G01*
X2354579Y1894839D03*
G01*
X2434336Y1894839D03*
G01*
X2514345Y1894839D03*
G01*
X1713737Y1814829D03*
G01*
X1793747Y1814576D03*
G01*
X1873504Y1814576D03*
G01*
X1953513Y1814829D03*
G01*
X2034539Y1814829D03*
G01*
X2114295Y1814829D03*
G01*
X2194305Y1814829D03*
G01*
X2274315Y1814829D03*
G01*
X2354326Y1814829D03*
G01*
X2434336Y1814829D03*
G01*
X2514091Y1814576D03*
G01*
X1713737Y1734820D03*
G01*
X1793747Y1734565D03*
G01*
X1873504Y1734565D03*
G01*
X1953513Y1734820D03*
G01*
X2034794Y1734820D03*
G01*
X2114550Y1734820D03*
G01*
X2194560Y1734820D03*
G01*
X2274315Y1734820D03*
G01*
X2354326Y1734820D03*
G01*
X2434336Y1734820D03*
G01*
X2514091Y1734565D03*
G01*
X1713737Y1655063D03*
G01*
X1793747Y1654810D03*
G01*
X1873504Y1654810D03*
G01*
X1953513Y1654810D03*
G01*
X2034539Y1655063D03*
G01*
X2114295Y1655063D03*
G01*
X2194305Y1655063D03*
G01*
X2274315Y1655063D03*
G01*
X2354326Y1655063D03*
G01*
X2434336Y1654810D03*
G01*
X2514091Y1654810D03*
G01*
X1713737Y1574800D03*
G01*
X1793747Y1574545D03*
G01*
X1873504Y1574545D03*
G01*
X1953513Y1574800D03*
G01*
X2034794Y1574800D03*
G01*
X2114550Y1574800D03*
G01*
X2194560Y1574800D03*
G01*
X2274315Y1574800D03*
G01*
X2354326Y1574800D03*
G01*
X2434336Y1574800D03*
G01*
X2514091Y1574545D03*
G01*
X1713737Y1494789D03*
G01*
X1793747Y1494789D03*
G01*
X1873504Y1494789D03*
G01*
X1953513Y1494789D03*
G01*
X2034539Y1494789D03*
G01*
X2114295Y1494789D03*
G01*
X2194305Y1494789D03*
G01*
X2274315Y1494789D03*
G01*
X2354326Y1494789D03*
G01*
X2434336Y1494789D03*
G01*
X2514091Y1494789D03*
G01*
X2841497Y2060955D03*
G01*
X2921254Y2060702D03*
G01*
X3001263Y2060702D03*
G01*
X3081020Y2060955D03*
G01*
X3162300Y2060955D03*
G01*
X3242056Y2060955D03*
G01*
X3322065Y2060955D03*
G01*
X3402075Y2060955D03*
G01*
X3482086Y2060955D03*
G01*
X3561841Y2060955D03*
G01*
X3641852Y2060702D03*
G01*
X2840990Y1981200D03*
G01*
X2921000Y1980945D03*
G01*
X3000756Y1980945D03*
G01*
X3080765Y1980945D03*
G01*
X3161791Y1981200D03*
G01*
X3241547Y1981200D03*
G01*
X3321558Y1981200D03*
G01*
X3401568Y1981200D03*
G01*
X3481577Y1981200D03*
G01*
X3561588Y1980945D03*
G01*
X3641343Y1980945D03*
G01*
X2840990Y1900936D03*
G01*
X2921000Y1900936D03*
G01*
X3000756Y1900936D03*
G01*
X3080765Y1900936D03*
G01*
X3162045Y1900936D03*
G01*
X3241802Y1900936D03*
G01*
X3321558Y1900936D03*
G01*
X3401568Y1900936D03*
G01*
X3481577Y1900936D03*
G01*
X3561588Y1900936D03*
G01*
X3641343Y1900936D03*
G01*
X2840990Y1820926D03*
G01*
X2920745Y1820671D03*
G01*
X3000756Y1820671D03*
G01*
X3080511Y1820926D03*
G01*
X3161791Y1820926D03*
G01*
X3241547Y1820926D03*
G01*
X3321558Y1820926D03*
G01*
X3401568Y1820926D03*
G01*
X3481577Y1820926D03*
G01*
X3561334Y1820926D03*
G01*
X2840990Y1740915D03*
G01*
X2921000Y1740662D03*
G01*
X3000756Y1740662D03*
G01*
X3080765Y1740915D03*
G01*
X3161791Y1740915D03*
G01*
X3241547Y1740915D03*
G01*
X3321558Y1740915D03*
G01*
X3401568Y1740915D03*
G01*
X3481577Y1740915D03*
G01*
X2840990Y1661160D03*
G01*
X2920745Y1660905D03*
G01*
X3000756Y1660905D03*
G01*
X3080511Y1660905D03*
G01*
X3161791Y1661160D03*
G01*
X3241547Y1661160D03*
G01*
X3321558Y1661160D03*
G01*
X3401568Y1661160D03*
G01*
X2840990Y1580895D03*
G01*
X2921000Y1580642D03*
G01*
X3000756Y1580642D03*
G01*
X3080765Y1580642D03*
G01*
X3161791Y1580895D03*
G01*
X3241547Y1580895D03*
G01*
X3321558Y1580895D03*
G01*
X2840990Y1500886D03*
G01*
X2920745Y1500886D03*
G01*
X3000756Y1500886D03*
G01*
X3080511Y1500886D03*
G01*
X3161791Y1500886D03*
G01*
X3241547Y1500886D03*
D15*
X279941Y-1815084D02*
G01*
X219930Y-1815084D01*
X279941Y-985012D02*
G01*
X219930Y-985012D01*
X1430020Y1559836D02*
G01*
X1430020Y1339827D01*
X810005Y1559836D02*
G01*
X810005Y1339827D01*
X1010135Y979931D02*
G01*
X1230144Y979931D01*
M02*
