M48
METRIC,LZ,000.000
;FILE_FORMAT=3:3
;TYPE=PLATED
;Layer: Drill PTH
;EasyEDA v6.4.19.5, 2021-05-27T17:32:06+08:00
;33a6c8c822a742f28e1fac3212fc467e,cef4b8211a074a3184fc3ad01c494734,10
;Gerber Generator version 0.2
;Holesize 1 = 0.400 mm
T01C0.400
;Holesize 2 = 0.701 mm
T02C0.701
;Holesize 3 = 0.800 mm
T03C0.800
;Holesize 4 = 0.810 mm
T04C0.810
;Holesize 5 = 1.100 mm
T05C1.100
%
G05
G90
T01
X032601Y-008753
X032601Y-009451
X032601Y-010152
X032601Y-010851
X031900Y-010851
X031900Y-010150
X031900Y-009451
X031900Y-008750
X022502Y-006203
X022502Y-006901
X022502Y-007602
X021803Y-007602
X021803Y-006901
X021803Y-006203
X026149Y007150
X025446Y007153
X027549Y-000551
X027549Y000201
X027549Y000950
X027549Y001699
X027549Y002451
X027549Y003200
X026800Y-000551
X026050Y-000551
X026800Y000201
X026050Y000201
X026800Y000950
X026050Y000950
X026800Y001699
X026050Y001699
X026800Y002451
X026050Y002451
X025301Y002451
X024549Y002451
X023800Y002451
X023051Y002451
X022301Y002451
X021549Y002451
X020800Y002451
X018303Y006949
X018301Y006200
X018301Y005451
X018301Y004699
X018301Y003950
X018301Y003200
X018301Y002451
X026800Y003200
X030950Y-000551
X031699Y-000551
X032451Y-000551
X030950Y000201
X031699Y000201
X032451Y000201
X030952Y002649
X030952Y003399
X031702Y003399
X031702Y004148
X030952Y004148
X030952Y004897
X031702Y004897
X030952Y005649
X030952Y006398
X030952Y007148
X030203Y007148
X030203Y006398
X029451Y007148
X026901Y-018801
X026901Y-019550
X026901Y-020300
X026901Y-021049
X026901Y-021801
X026901Y-022550
X026901Y-023299
X026901Y-024051
X027650Y-024051
X028400Y-024051
X029149Y-024051
X029901Y-024051
X029901Y-023299
X029149Y-023299
X028400Y-023299
X027650Y-023299
X027650Y-022550
X028400Y-022550
X029149Y-022550
X029901Y-022550
X029901Y-021801
X029149Y-021801
X028400Y-021801
X027650Y-021801
X027650Y-021049
X028400Y-021049
X029149Y-021049
X029901Y-021049
X029901Y-020300
X029149Y-020300
X028400Y-020300
X027650Y-020300
X027650Y-019550
X028400Y-019550
X029149Y-019550
X029901Y-019550
X027650Y-018801
X028400Y-018801
X029149Y-018801
X029901Y-018801
X006500Y-008504
X006500Y-009200
X006500Y-013698
X006500Y-018900
X009350Y-018301
X009350Y-018900
X014503Y-018103
X015253Y-018103
X014503Y-018852
X014503Y-019601
X014503Y-020350
X014503Y-021102
X014503Y-021852
X015250Y-018849
X015250Y-019601
X015250Y-020350
X015250Y-021100
X015250Y-021849
X015999Y-021849
X016751Y-021849
X017501Y-021849
X018250Y-021849
X018999Y-021849
X015999Y-021100
X016751Y-021100
X017501Y-021100
X018250Y-021100
X015999Y-020350
X016751Y-020350
X017501Y-020350
X015999Y-019601
X016751Y-019601
X015999Y-018849
X017142Y020549
X017943Y020546
X018740Y020546
X019540Y020549
X020350Y020549
X021148Y020549
X021948Y020549
X022748Y020549
X023548Y020549
X024348Y020549
X025146Y020546
X017137Y019751
X017937Y019749
X018735Y019749
X019535Y019749
X020348Y019751
X021146Y019751
X021946Y019751
X022746Y019751
X023546Y019751
X024343Y019749
X025141Y019749
X017140Y018948
X017937Y018948
X018738Y018948
X019535Y018948
X020348Y018948
X021146Y018948
X021946Y018948
X022746Y018948
X023546Y018948
X024343Y018948
X025143Y018948
X017137Y018148
X017937Y018146
X018735Y018146
X019535Y018148
X020345Y018148
X021143Y018148
X021943Y018148
X022743Y018148
X023543Y018148
X024343Y018148
X025141Y018146
X017137Y017348
X017937Y017346
X018735Y017346
X019535Y017348
X020348Y017348
X021146Y017348
X021946Y017348
X022743Y017348
X023543Y017348
X024343Y017348
X025141Y017346
X017137Y016551
X017937Y016548
X018735Y016548
X019535Y016548
X020345Y016551
X021143Y016551
X021943Y016551
X022743Y016551
X023543Y016551
X024343Y016548
X025141Y016548
X017137Y015748
X017937Y015745
X018735Y015745
X019535Y015748
X020348Y015748
X021146Y015748
X021946Y015748
X022743Y015748
X023543Y015748
X024343Y015748
X025141Y015745
X017137Y014948
X017937Y014948
X018735Y014948
X019535Y014948
X020345Y014948
X021143Y014948
X021943Y014948
X022743Y014948
X023543Y014948
X024343Y014948
X025141Y014948
X028415Y020610
X029213Y020607
X030013Y020607
X030810Y020610
X031623Y020610
X032421Y020610
X033221Y020610
X034021Y020610
X034821Y020610
X035618Y020610
X036419Y020607
X028410Y019812
X029210Y019809
X030008Y019809
X030808Y019809
X031618Y019812
X032415Y019812
X033216Y019812
X034016Y019812
X034816Y019812
X035616Y019809
X036413Y019809
X028410Y019009
X029210Y019009
X030008Y019009
X030808Y019009
X031620Y019009
X032418Y019009
X033216Y019009
X034016Y019009
X034816Y019009
X035616Y019009
X036413Y019009
X028410Y018209
X029207Y018207
X030008Y018207
X030805Y018209
X031618Y018209
X032415Y018209
X033216Y018209
X034016Y018209
X034816Y018209
X035613Y018209
X028410Y017409
X029210Y017407
X030008Y017407
X030808Y017409
X031618Y017409
X032415Y017409
X033216Y017409
X034016Y017409
X034816Y017409
X028410Y016612
X029207Y016609
X030008Y016609
X030805Y016609
X031618Y016612
X032415Y016612
X033216Y016612
X034016Y016612
X028410Y015809
X029210Y015806
X030008Y015806
X030808Y015806
X031618Y015809
X032415Y015809
X033216Y015809
X028410Y015009
X029207Y015009
X030008Y015009
X030805Y015009
X031618Y015009
X032415Y015009
T02
X014300Y015598G85X014300Y013398
X008100Y015598G85X008100Y013398
X010101Y009799G85X012301Y009799
T03
X002499Y-012002
X002499Y-014000
X002499Y-015999
X002799Y-018151G85X002199Y-018151
X002799Y-009850G85X002199Y-009850
T04
X053360Y-003180
X055900Y-003180
X058440Y-003180
X053360Y-005720
X055900Y-005720
X058440Y-005720
X053360Y-008260
X055900Y-008260
X058440Y-008260
X053360Y-010800
X055900Y-010800
X058440Y-010800
X053360Y-013340
X055900Y-013340
X058440Y-013340
X053360Y-015880
X055900Y-015880
X058440Y-015880
X053360Y-018420
X055900Y-018420
X058440Y-018420
X053360Y008009
X055900Y008009
X058440Y008009
X053360Y005469
X055900Y005469
X058440Y005469
X053360Y002929
X055900Y002929
X058440Y002929
X053360Y000389
X055900Y000389
X058440Y000389
X007300Y-003830
X007300Y-006370
X047409Y014750
X044869Y014750
X042329Y014750
X039789Y014750
X047409Y012210
X044869Y012210
X042329Y012210
X039789Y012210
X047409Y009670
X044869Y009670
X042329Y009670
X039789Y009670
X047409Y007130
X044869Y007130
X042329Y007130
X039789Y007130
X047409Y004590
X044869Y004590
X042329Y004590
X039789Y004590
X042329Y-008110
X044869Y-008110
X047409Y-008110
X039789Y-005570
X042329Y-005570
X044869Y-005570
X047409Y-005570
X039789Y-003030
X042329Y-003030
X044869Y-003030
X047409Y-003030
X039789Y-000490
X042329Y-000490
X044869Y-000490
X047409Y-000490
X039789Y002050
X042329Y002050
X044869Y002050
X047409Y002050
X039789Y-008110
X047409Y-010650
X044869Y-010650
X042329Y-010650
X039789Y-010650
X047409Y-013190
X044869Y-013190
X042329Y-013190
X039789Y-013190
X047409Y-015730
X044869Y-015730
X042329Y-015730
X039789Y-015730
X047409Y-018270
X044869Y-018270
X042329Y-018270
X039789Y-018270
X047409Y-020810
X044869Y-020810
X042329Y-020810
X039789Y-020810
X047409Y-023350
X044869Y-023350
X042329Y-023350
X039789Y-023350
T05
X046099Y020899
X041100Y020899
X056200Y012301
X056200Y017300
X004001Y006797
X004001Y001798
M30
