G04 Layer: TopLayer*
G04 EasyEDA v6.4.19.5, 2021-05-27T17:32:06+08:00*
G04 33a6c8c822a742f28e1fac3212fc467e,cef4b8211a074a3184fc3ad01c494734,10*
G04 Gerber Generator version 0.2*
G04 Scale: 100 percent, Rotated: No, Reflected: No *
G04 Dimensions in millimeters *
G04 leading zeros omitted , absolute positions ,4 integer and 5 decimal *
%FSLAX45Y45*%
%MOMM*%

%ADD11C,1.5000*%
%ADD12C,0.5000*%
%ADD13C,2.0000*%
%ADD14C,1.0000*%
%ADD15C,1.1999*%
%ADD16C,0.7000*%
%ADD18R,0.9299X0.9799*%
%ADD19R,0.9799X0.9299*%
%ADD20R,1.5000X3.0000*%
%ADD21R,2.2000X1.2000*%
%ADD22R,6.5000X6.0000*%
%ADD23R,3.4999X2.2000*%
%ADD24R,1.0000X2.2000*%
%ADD25R,1.8000X4.4000*%
%ADD26R,10.1219X10.0203*%
%ADD27R,1.5113X3.0099*%
%ADD28R,1.5200X1.5200*%
%ADD29C,1.5200*%
%ADD30R,2.5000X2.5000*%
%ADD31C,2.5000*%
%ADD32R,1.5000X1.5000*%
%ADD33R,2.2000X2.5000*%
%ADD34C,2.2000*%
%ADD35R,1.3000X1.3000*%
%ADD36C,1.3000*%

%LPD*%
G36*
X2318512Y624840D02*
G01*
X2214880Y728472D01*
X2214880Y739648D01*
X2215388Y742696D01*
X2215388Y1043940D01*
X2235200Y1043940D01*
X2235200Y893064D01*
X2240280Y856487D01*
X2255520Y822960D01*
X2258568Y819403D01*
X2258568Y742696D01*
X2260092Y733552D01*
X2264156Y724916D01*
X2270760Y718312D01*
X2279396Y714248D01*
X2288540Y712724D01*
X2439416Y712724D01*
X2448560Y714248D01*
X2457196Y718312D01*
X2463800Y724916D01*
X2467864Y733552D01*
X2469388Y742696D01*
X2469388Y817880D01*
X2473960Y822960D01*
X2489200Y856487D01*
X2494280Y893064D01*
X2494280Y907287D01*
X2590292Y907287D01*
X2608072Y910844D01*
X2639060Y910844D01*
X2648204Y912368D01*
X2656840Y916432D01*
X2663444Y923036D01*
X2665476Y927100D01*
X2665476Y703580D01*
X2650236Y688340D01*
X2648204Y686816D01*
X2586228Y624840D01*
X2555240Y624840D01*
X2555240Y650240D01*
X2553716Y659384D01*
X2549652Y668020D01*
X2543048Y674624D01*
X2534412Y678688D01*
X2525268Y680212D01*
X2374900Y680212D01*
X2365756Y678688D01*
X2357120Y674624D01*
X2350516Y668020D01*
X2346452Y659384D01*
X2344928Y650240D01*
X2344928Y624840D01*
G37*

%LPD*%
G36*
X4552188Y-383032D02*
G01*
X4571492Y-363728D01*
X4586224Y-334772D01*
X4591304Y-302260D01*
X4591304Y459740D01*
X4586224Y492251D01*
X4571492Y521208D01*
X4548124Y544576D01*
X4519168Y559308D01*
X4486656Y564388D01*
X4462272Y560324D01*
X4398772Y623824D01*
X4392168Y629412D01*
X4385056Y633984D01*
X4376928Y637540D01*
X4368800Y639572D01*
X4360164Y640080D01*
X4292600Y640080D01*
X4309364Y656844D01*
X4323080Y683260D01*
X4327652Y712724D01*
X4323080Y742188D01*
X4309364Y768604D01*
X4292092Y785876D01*
X4327652Y785876D01*
X4382008Y731520D01*
X4382008Y712724D01*
X4387088Y680212D01*
X4401820Y651256D01*
X4425188Y627888D01*
X4454144Y613156D01*
X4486656Y608076D01*
X4519168Y613156D01*
X4548124Y627888D01*
X4571492Y651256D01*
X4586224Y680212D01*
X4591304Y712724D01*
X4591304Y1712975D01*
X4589780Y1729232D01*
X4586224Y1745488D01*
X4580128Y1760220D01*
X4571492Y1774443D01*
X4560824Y1787143D01*
X4264660Y2083816D01*
X4265168Y2089912D01*
X4260596Y2126996D01*
X4247388Y2162048D01*
X4226052Y2192528D01*
X4198112Y2217420D01*
X4165092Y2234692D01*
X4129024Y2243836D01*
X4091432Y2243836D01*
X4055364Y2234692D01*
X4022344Y2217420D01*
X3994404Y2192528D01*
X3973068Y2162048D01*
X3959860Y2126996D01*
X3955287Y2089912D01*
X3959860Y2052828D01*
X3973068Y2017775D01*
X3994404Y1987296D01*
X4022344Y1962404D01*
X4055364Y1945132D01*
X4091432Y1935988D01*
X4115815Y1935988D01*
X4337812Y1713484D01*
X4337812Y1700784D01*
X4332732Y1695704D01*
X3915156Y1695704D01*
X3906520Y1695196D01*
X3897884Y1693164D01*
X3890264Y1689607D01*
X3882644Y1685036D01*
X3876040Y1679448D01*
X3853179Y1656080D01*
X3850132Y2494788D01*
X4360164Y2499868D01*
X4869688Y2499868D01*
X4869688Y-379984D01*
G37*

%LPD*%
G36*
X3799840Y-390144D02*
G01*
X3600196Y-119887D01*
X2309876Y-114808D01*
X2230120Y-15240D01*
X2105152Y154940D01*
X1785112Y154940D01*
X1785112Y1044956D01*
X2004568Y1044448D01*
X2004568Y742696D01*
X2005584Y736600D01*
X2005584Y692912D01*
X1928368Y616204D01*
X1920239Y606552D01*
X1913636Y595884D01*
X1909064Y584708D01*
X1906016Y572516D01*
X1905000Y559816D01*
X1905000Y507492D01*
X1906016Y503428D01*
X1906016Y461264D01*
X1907539Y452120D01*
X1911604Y443484D01*
X1918207Y436880D01*
X1926843Y432816D01*
X1935988Y431292D01*
X1966975Y431292D01*
X1984756Y427735D01*
X2002536Y431292D01*
X2034032Y431292D01*
X2043175Y432816D01*
X2051812Y436880D01*
X2058416Y443484D01*
X2062480Y452120D01*
X2064004Y461264D01*
X2064004Y505459D01*
X2064512Y507492D01*
X2064512Y526796D01*
X2077720Y540004D01*
X2106676Y540004D01*
X2200656Y446024D01*
X2213356Y435356D01*
X2227072Y426720D01*
X2242312Y420624D01*
X2258568Y417068D01*
X2274824Y415543D01*
X2344928Y415543D01*
X2344928Y350012D01*
X2346452Y340868D01*
X2350516Y332232D01*
X2357120Y325628D01*
X2365756Y321564D01*
X2374900Y320040D01*
X2525268Y320040D01*
X2534412Y321564D01*
X2543048Y325628D01*
X2549652Y332232D01*
X2553716Y340868D01*
X2555240Y350012D01*
X2555240Y415543D01*
X2618232Y415543D01*
X2624836Y415035D01*
X2919984Y415035D01*
X2935224Y416559D01*
X2949448Y420624D01*
X2959100Y425704D01*
X2974340Y425704D01*
X2983484Y427228D01*
X2992120Y431292D01*
X2998724Y437896D01*
X3002788Y446532D01*
X3004312Y455676D01*
X3004312Y500888D01*
X3004820Y503428D01*
X3004312Y506476D01*
X3004312Y548640D01*
X3002788Y557784D01*
X2998724Y566420D01*
X2992120Y573024D01*
X2983484Y577088D01*
X2974340Y578612D01*
X2960624Y578612D01*
X2874772Y661416D01*
X2874772Y1042416D01*
X3134360Y1041400D01*
X3134360Y741680D01*
X3135376Y735584D01*
X3135376Y660908D01*
X3136900Y644652D01*
X3140456Y628396D01*
X3146552Y613156D01*
X3155188Y599440D01*
X3165856Y586740D01*
X3294887Y457708D01*
X3294887Y402336D01*
X3094228Y201676D01*
X3002788Y201676D01*
X3002788Y202692D01*
X2998724Y211328D01*
X2992120Y217932D01*
X2983484Y221996D01*
X2974340Y223520D01*
X2876296Y223520D01*
X2867152Y221996D01*
X2858516Y217932D01*
X2851912Y211328D01*
X2847848Y202692D01*
X2846324Y193548D01*
X2846324Y100584D01*
X2847848Y91440D01*
X2851912Y82804D01*
X2858516Y76200D01*
X2867152Y72136D01*
X2876296Y70612D01*
X2974340Y70612D01*
X2983484Y72136D01*
X2992120Y76200D01*
X2998724Y82804D01*
X3002788Y91440D01*
X3002788Y91948D01*
X3116580Y91948D01*
X3125216Y92456D01*
X3133344Y94488D01*
X3141472Y98044D01*
X3148584Y102616D01*
X3155188Y108204D01*
X3351784Y304800D01*
X3362451Y304800D01*
X3721100Y-55372D01*
X3724656Y-57912D01*
X3726179Y-59436D01*
X3728212Y-60452D01*
X3881628Y-213867D01*
X3888232Y-219456D01*
X3895344Y-224028D01*
X3903472Y-227584D01*
X3911600Y-229616D01*
X3919220Y-230124D01*
X3901948Y-247396D01*
X3888232Y-273812D01*
X3883660Y-303276D01*
X3888232Y-332740D01*
X3901948Y-359156D01*
X3922776Y-379984D01*
X3939540Y-388620D01*
G37*

%LPD*%
G36*
X2645156Y-2499868D02*
G01*
X2645156Y-1999996D01*
X2274824Y-1999996D01*
X2274824Y-1699768D01*
X2900172Y-1699768D01*
X2900172Y-1799843D01*
X3350260Y-1799843D01*
X3350260Y-1160272D01*
X3475736Y-1160272D01*
X3484879Y-1158748D01*
X3493515Y-1154684D01*
X3500120Y-1148080D01*
X3504184Y-1139444D01*
X3505708Y-1130300D01*
X3505708Y-830071D01*
X3504184Y-820928D01*
X3500120Y-812292D01*
X3493515Y-805688D01*
X3484879Y-801624D01*
X3475736Y-800100D01*
X3297936Y-800100D01*
X3263900Y-766064D01*
X3254248Y-757936D01*
X3243580Y-751332D01*
X3232404Y-746760D01*
X3220212Y-743712D01*
X3207512Y-742696D01*
X2822448Y-742696D01*
X2809748Y-743712D01*
X2797556Y-746760D01*
X2786380Y-751332D01*
X2775712Y-757936D01*
X2766060Y-766064D01*
X2621788Y-910336D01*
X2304796Y-910336D01*
X2295652Y-911860D01*
X2287016Y-915924D01*
X2280412Y-922528D01*
X2276348Y-931164D01*
X2274824Y-940308D01*
X2274824Y-1152144D01*
X1370076Y-1155192D01*
X1245108Y-1039876D01*
X1240028Y0D01*
X1400048Y0D01*
X1465072Y-86360D01*
X1465072Y-220471D01*
X1465580Y-223520D01*
X1465580Y-299720D01*
X1454912Y-299720D01*
X1445768Y-301244D01*
X1437132Y-305308D01*
X1430528Y-311912D01*
X1426464Y-320548D01*
X1424940Y-329692D01*
X1424940Y-629920D01*
X1426464Y-639064D01*
X1430528Y-647700D01*
X1437132Y-654304D01*
X1448308Y-671068D01*
X1474216Y-688340D01*
X1504696Y-694944D01*
X1666748Y-696468D01*
X1883664Y-696468D01*
X1940560Y-753364D01*
X1940560Y-820928D01*
X1940052Y-823468D01*
X1941068Y-828548D01*
X1941068Y-869696D01*
X1942592Y-878840D01*
X1946656Y-887476D01*
X1953260Y-894080D01*
X1961896Y-898144D01*
X1971039Y-899668D01*
X2002028Y-899668D01*
X2019807Y-903224D01*
X2037588Y-899668D01*
X2069084Y-899668D01*
X2078228Y-898144D01*
X2086864Y-894080D01*
X2093468Y-887476D01*
X2097532Y-878840D01*
X2099056Y-869696D01*
X2099056Y-835660D01*
X2099564Y-830071D01*
X2300224Y-830071D01*
X2309368Y-828548D01*
X2318004Y-824484D01*
X2324608Y-817880D01*
X2328672Y-809244D01*
X2330196Y-800100D01*
X2330196Y-530352D01*
X2329688Y-526288D01*
X2329688Y-339852D01*
X2328164Y-330708D01*
X2324100Y-322072D01*
X2317496Y-315468D01*
X2308860Y-311404D01*
X2299716Y-309880D01*
X2199640Y-309880D01*
X2190496Y-311404D01*
X2181860Y-315468D01*
X2175256Y-322072D01*
X2171192Y-330708D01*
X2169668Y-339852D01*
X2169668Y-537464D01*
X2167128Y-540004D01*
X2045207Y-540004D01*
X2042160Y-540512D01*
X2038096Y-540512D01*
X2020316Y-536956D01*
X1700275Y-536956D01*
X1635251Y-472440D01*
X1635251Y-329692D01*
X1633728Y-320548D01*
X1629664Y-311912D01*
X1625092Y-307340D01*
X1625092Y-100076D01*
X1695196Y-100076D01*
X1695196Y-220471D01*
X1696720Y-229616D01*
X1700784Y-238252D01*
X1707388Y-244856D01*
X1716024Y-248920D01*
X1725168Y-250444D01*
X1825243Y-250444D01*
X1834388Y-248920D01*
X1843024Y-244856D01*
X1849628Y-238252D01*
X1853692Y-229616D01*
X1855216Y-220471D01*
X1855216Y-100076D01*
X2100072Y-100076D01*
X2200148Y-225044D01*
X3535172Y-225044D01*
X3734815Y-490220D01*
X3850132Y-490220D01*
X3913632Y-489712D01*
X3901948Y-501396D01*
X3888232Y-527812D01*
X3883660Y-557276D01*
X3888232Y-586740D01*
X3901948Y-613156D01*
X3922776Y-633984D01*
X3949192Y-647700D01*
X3978656Y-652272D01*
X4008120Y-647700D01*
X4034536Y-633984D01*
X4055364Y-613156D01*
X4069079Y-586740D01*
X4073651Y-557276D01*
X4069079Y-527812D01*
X4055364Y-501396D01*
X4042156Y-488188D01*
X4170172Y-487172D01*
X4155948Y-501396D01*
X4142232Y-527812D01*
X4137660Y-557276D01*
X4142232Y-586740D01*
X4155948Y-613156D01*
X4176776Y-633984D01*
X4203192Y-647700D01*
X4232656Y-652272D01*
X4262120Y-647700D01*
X4288536Y-633984D01*
X4309364Y-613156D01*
X4323080Y-586740D01*
X4327652Y-557276D01*
X4323080Y-527812D01*
X4309364Y-501396D01*
X4293616Y-485648D01*
X4426712Y-484632D01*
X4409948Y-501396D01*
X4396232Y-527812D01*
X4391660Y-557276D01*
X4396232Y-586740D01*
X4409948Y-613156D01*
X4430776Y-633984D01*
X4457192Y-647700D01*
X4486656Y-652272D01*
X4516120Y-647700D01*
X4542536Y-633984D01*
X4563364Y-613156D01*
X4577080Y-586740D01*
X4581652Y-557276D01*
X4577080Y-527812D01*
X4563364Y-501396D01*
X4545076Y-483108D01*
X4870196Y-480059D01*
X4869688Y-2499868D01*
G37*

%LPC*%
G36*
X3978656Y-2430272D02*
G01*
X4008120Y-2425700D01*
X4034536Y-2411984D01*
X4055364Y-2391156D01*
X4069079Y-2364740D01*
X4073651Y-2335276D01*
X4069079Y-2305812D01*
X4055364Y-2279396D01*
X4034536Y-2258568D01*
X4008120Y-2244852D01*
X3978656Y-2240280D01*
X3949192Y-2244852D01*
X3922776Y-2258568D01*
X3901948Y-2279396D01*
X3888232Y-2305812D01*
X3883660Y-2335276D01*
X3888232Y-2364740D01*
X3901948Y-2391156D01*
X3922776Y-2411984D01*
X3949192Y-2425700D01*
G37*
G36*
X4232656Y-2430272D02*
G01*
X4262120Y-2425700D01*
X4288536Y-2411984D01*
X4309364Y-2391156D01*
X4323080Y-2364740D01*
X4327652Y-2335276D01*
X4323080Y-2305812D01*
X4309364Y-2279396D01*
X4288536Y-2258568D01*
X4262120Y-2244852D01*
X4232656Y-2240280D01*
X4203192Y-2244852D01*
X4176776Y-2258568D01*
X4155948Y-2279396D01*
X4142232Y-2305812D01*
X4137660Y-2335276D01*
X4142232Y-2364740D01*
X4155948Y-2391156D01*
X4176776Y-2411984D01*
X4203192Y-2425700D01*
G37*
G36*
X4486656Y-2430272D02*
G01*
X4516120Y-2425700D01*
X4542536Y-2411984D01*
X4563364Y-2391156D01*
X4577080Y-2364740D01*
X4581652Y-2335276D01*
X4577080Y-2305812D01*
X4563364Y-2279396D01*
X4542536Y-2258568D01*
X4516120Y-2244852D01*
X4486656Y-2240280D01*
X4457192Y-2244852D01*
X4430776Y-2258568D01*
X4409948Y-2279396D01*
X4396232Y-2305812D01*
X4391660Y-2335276D01*
X4396232Y-2364740D01*
X4409948Y-2391156D01*
X4430776Y-2411984D01*
X4457192Y-2425700D01*
G37*
G36*
X4486656Y-2176272D02*
G01*
X4516120Y-2171700D01*
X4542536Y-2157984D01*
X4563364Y-2137156D01*
X4577080Y-2110740D01*
X4581652Y-2081275D01*
X4577080Y-2051812D01*
X4563364Y-2025396D01*
X4542536Y-2004568D01*
X4516120Y-1990852D01*
X4486656Y-1986280D01*
X4457192Y-1990852D01*
X4430776Y-2004568D01*
X4409948Y-2025396D01*
X4396232Y-2051812D01*
X4391660Y-2081275D01*
X4396232Y-2110740D01*
X4409948Y-2137156D01*
X4430776Y-2157984D01*
X4457192Y-2171700D01*
G37*
G36*
X4232656Y-2176272D02*
G01*
X4262120Y-2171700D01*
X4288536Y-2157984D01*
X4309364Y-2137156D01*
X4323080Y-2110740D01*
X4327652Y-2081275D01*
X4323080Y-2051812D01*
X4309364Y-2025396D01*
X4288536Y-2004568D01*
X4262120Y-1990852D01*
X4232656Y-1986280D01*
X4203192Y-1990852D01*
X4176776Y-2004568D01*
X4155948Y-2025396D01*
X4142232Y-2051812D01*
X4137660Y-2081275D01*
X4142232Y-2110740D01*
X4155948Y-2137156D01*
X4176776Y-2157984D01*
X4203192Y-2171700D01*
G37*
G36*
X3978656Y-2176272D02*
G01*
X4008120Y-2171700D01*
X4034536Y-2157984D01*
X4055364Y-2137156D01*
X4069079Y-2110740D01*
X4073651Y-2081275D01*
X4069079Y-2051812D01*
X4055364Y-2025396D01*
X4034536Y-2004568D01*
X4008120Y-1990852D01*
X3978656Y-1986280D01*
X3949192Y-1990852D01*
X3922776Y-2004568D01*
X3901948Y-2025396D01*
X3888232Y-2051812D01*
X3883660Y-2081275D01*
X3888232Y-2110740D01*
X3901948Y-2137156D01*
X3922776Y-2157984D01*
X3949192Y-2171700D01*
G37*
G36*
X4486656Y-1922272D02*
G01*
X4516120Y-1917700D01*
X4542536Y-1903984D01*
X4563364Y-1883156D01*
X4577080Y-1856739D01*
X4581652Y-1827275D01*
X4577080Y-1797812D01*
X4563364Y-1771396D01*
X4542536Y-1750568D01*
X4516120Y-1736852D01*
X4486656Y-1732280D01*
X4457192Y-1736852D01*
X4430776Y-1750568D01*
X4409948Y-1771396D01*
X4396232Y-1797812D01*
X4391660Y-1827275D01*
X4396232Y-1856739D01*
X4409948Y-1883156D01*
X4430776Y-1903984D01*
X4457192Y-1917700D01*
G37*
G36*
X4232656Y-1922272D02*
G01*
X4262120Y-1917700D01*
X4288536Y-1903984D01*
X4309364Y-1883156D01*
X4323080Y-1856739D01*
X4327652Y-1827275D01*
X4323080Y-1797812D01*
X4309364Y-1771396D01*
X4288536Y-1750568D01*
X4262120Y-1736852D01*
X4232656Y-1732280D01*
X4203192Y-1736852D01*
X4176776Y-1750568D01*
X4155948Y-1771396D01*
X4142232Y-1797812D01*
X4137660Y-1827275D01*
X4142232Y-1856739D01*
X4155948Y-1883156D01*
X4176776Y-1903984D01*
X4203192Y-1917700D01*
G37*
G36*
X3978656Y-1922272D02*
G01*
X4008120Y-1917700D01*
X4034536Y-1903984D01*
X4055364Y-1883156D01*
X4069079Y-1856739D01*
X4073651Y-1827275D01*
X4069079Y-1797812D01*
X4055364Y-1771396D01*
X4034536Y-1750568D01*
X4008120Y-1736852D01*
X3978656Y-1732280D01*
X3949192Y-1736852D01*
X3922776Y-1750568D01*
X3901948Y-1771396D01*
X3888232Y-1797812D01*
X3883660Y-1827275D01*
X3888232Y-1856739D01*
X3901948Y-1883156D01*
X3922776Y-1903984D01*
X3949192Y-1917700D01*
G37*
G36*
X4486656Y-1668272D02*
G01*
X4516120Y-1663700D01*
X4542536Y-1649984D01*
X4563364Y-1629156D01*
X4577080Y-1602740D01*
X4581652Y-1573276D01*
X4577080Y-1543812D01*
X4563364Y-1517396D01*
X4542536Y-1496568D01*
X4516120Y-1482852D01*
X4486656Y-1478280D01*
X4457192Y-1482852D01*
X4430776Y-1496568D01*
X4409948Y-1517396D01*
X4396232Y-1543812D01*
X4391660Y-1573276D01*
X4396232Y-1602740D01*
X4409948Y-1629156D01*
X4430776Y-1649984D01*
X4457192Y-1663700D01*
G37*
G36*
X4232656Y-1668272D02*
G01*
X4262120Y-1663700D01*
X4288536Y-1649984D01*
X4309364Y-1629156D01*
X4323080Y-1602740D01*
X4327652Y-1573276D01*
X4323080Y-1543812D01*
X4309364Y-1517396D01*
X4288536Y-1496568D01*
X4262120Y-1482852D01*
X4232656Y-1478280D01*
X4203192Y-1482852D01*
X4176776Y-1496568D01*
X4155948Y-1517396D01*
X4142232Y-1543812D01*
X4137660Y-1573276D01*
X4142232Y-1602740D01*
X4155948Y-1629156D01*
X4176776Y-1649984D01*
X4203192Y-1663700D01*
G37*
G36*
X3978656Y-1668272D02*
G01*
X4008120Y-1663700D01*
X4034536Y-1649984D01*
X4055364Y-1629156D01*
X4069079Y-1602740D01*
X4073651Y-1573276D01*
X4069079Y-1543812D01*
X4055364Y-1517396D01*
X4034536Y-1496568D01*
X4008120Y-1482852D01*
X3978656Y-1478280D01*
X3949192Y-1482852D01*
X3922776Y-1496568D01*
X3901948Y-1517396D01*
X3888232Y-1543812D01*
X3883660Y-1573276D01*
X3888232Y-1602740D01*
X3901948Y-1629156D01*
X3922776Y-1649984D01*
X3949192Y-1663700D01*
G37*
G36*
X4486656Y-1414272D02*
G01*
X4516120Y-1409700D01*
X4542536Y-1395984D01*
X4563364Y-1375156D01*
X4577080Y-1348740D01*
X4581652Y-1319276D01*
X4577080Y-1289812D01*
X4563364Y-1263396D01*
X4542536Y-1242568D01*
X4516120Y-1228852D01*
X4486656Y-1224280D01*
X4457192Y-1228852D01*
X4430776Y-1242568D01*
X4409948Y-1263396D01*
X4396232Y-1289812D01*
X4391660Y-1319276D01*
X4396232Y-1348740D01*
X4409948Y-1375156D01*
X4430776Y-1395984D01*
X4457192Y-1409700D01*
G37*
G36*
X4232656Y-1414272D02*
G01*
X4262120Y-1409700D01*
X4288536Y-1395984D01*
X4309364Y-1375156D01*
X4323080Y-1348740D01*
X4327652Y-1319276D01*
X4323080Y-1289812D01*
X4309364Y-1263396D01*
X4288536Y-1242568D01*
X4262120Y-1228852D01*
X4232656Y-1224280D01*
X4203192Y-1228852D01*
X4176776Y-1242568D01*
X4155948Y-1263396D01*
X4142232Y-1289812D01*
X4137660Y-1319276D01*
X4142232Y-1348740D01*
X4155948Y-1375156D01*
X4176776Y-1395984D01*
X4203192Y-1409700D01*
G37*
G36*
X3978656Y-1414272D02*
G01*
X4008120Y-1409700D01*
X4034536Y-1395984D01*
X4055364Y-1375156D01*
X4069079Y-1348740D01*
X4073651Y-1319276D01*
X4069079Y-1289812D01*
X4055364Y-1263396D01*
X4034536Y-1242568D01*
X4008120Y-1228852D01*
X3978656Y-1224280D01*
X3949192Y-1228852D01*
X3922776Y-1242568D01*
X3901948Y-1263396D01*
X3888232Y-1289812D01*
X3883660Y-1319276D01*
X3888232Y-1348740D01*
X3901948Y-1375156D01*
X3922776Y-1395984D01*
X3949192Y-1409700D01*
G37*
G36*
X4486656Y-1160272D02*
G01*
X4516120Y-1155700D01*
X4542536Y-1141984D01*
X4563364Y-1121156D01*
X4577080Y-1094740D01*
X4581652Y-1065276D01*
X4577080Y-1035812D01*
X4563364Y-1009396D01*
X4542536Y-988568D01*
X4516120Y-974852D01*
X4486656Y-970280D01*
X4457192Y-974852D01*
X4430776Y-988568D01*
X4409948Y-1009396D01*
X4396232Y-1035812D01*
X4391660Y-1065276D01*
X4396232Y-1094740D01*
X4409948Y-1121156D01*
X4430776Y-1141984D01*
X4457192Y-1155700D01*
G37*
G36*
X4232656Y-1160272D02*
G01*
X4262120Y-1155700D01*
X4288536Y-1141984D01*
X4309364Y-1121156D01*
X4323080Y-1094740D01*
X4327652Y-1065276D01*
X4323080Y-1035812D01*
X4309364Y-1009396D01*
X4288536Y-988568D01*
X4262120Y-974852D01*
X4232656Y-970280D01*
X4203192Y-974852D01*
X4176776Y-988568D01*
X4155948Y-1009396D01*
X4142232Y-1035812D01*
X4137660Y-1065276D01*
X4142232Y-1094740D01*
X4155948Y-1121156D01*
X4176776Y-1141984D01*
X4203192Y-1155700D01*
G37*
G36*
X3978656Y-1160272D02*
G01*
X4008120Y-1155700D01*
X4034536Y-1141984D01*
X4055364Y-1121156D01*
X4069079Y-1094740D01*
X4073651Y-1065276D01*
X4069079Y-1035812D01*
X4055364Y-1009396D01*
X4034536Y-988568D01*
X4008120Y-974852D01*
X3978656Y-970280D01*
X3949192Y-974852D01*
X3922776Y-988568D01*
X3901948Y-1009396D01*
X3888232Y-1035812D01*
X3883660Y-1065276D01*
X3888232Y-1094740D01*
X3901948Y-1121156D01*
X3922776Y-1141984D01*
X3949192Y-1155700D01*
G37*
G36*
X3978656Y-906271D02*
G01*
X4008120Y-901700D01*
X4034536Y-887984D01*
X4055364Y-867156D01*
X4069079Y-840740D01*
X4073651Y-811276D01*
X4069079Y-781812D01*
X4055364Y-755396D01*
X4034536Y-734568D01*
X4008120Y-720852D01*
X3978656Y-716280D01*
X3949192Y-720852D01*
X3922776Y-734568D01*
X3901948Y-755396D01*
X3888232Y-781812D01*
X3883660Y-811276D01*
X3888232Y-840740D01*
X3901948Y-867156D01*
X3922776Y-887984D01*
X3949192Y-901700D01*
G37*
G36*
X4232656Y-906271D02*
G01*
X4262120Y-901700D01*
X4288536Y-887984D01*
X4309364Y-867156D01*
X4323080Y-840740D01*
X4327652Y-811276D01*
X4323080Y-781812D01*
X4309364Y-755396D01*
X4288536Y-734568D01*
X4262120Y-720852D01*
X4232656Y-716280D01*
X4203192Y-720852D01*
X4176776Y-734568D01*
X4155948Y-755396D01*
X4142232Y-781812D01*
X4137660Y-811276D01*
X4142232Y-840740D01*
X4155948Y-867156D01*
X4176776Y-887984D01*
X4203192Y-901700D01*
G37*
G36*
X4486656Y-906271D02*
G01*
X4516120Y-901700D01*
X4542536Y-887984D01*
X4563364Y-867156D01*
X4577080Y-840740D01*
X4581652Y-811276D01*
X4577080Y-781812D01*
X4563364Y-755396D01*
X4542536Y-734568D01*
X4516120Y-720852D01*
X4486656Y-716280D01*
X4457192Y-720852D01*
X4430776Y-734568D01*
X4409948Y-755396D01*
X4396232Y-781812D01*
X4391660Y-811276D01*
X4396232Y-840740D01*
X4409948Y-867156D01*
X4430776Y-887984D01*
X4457192Y-901700D01*
G37*
G36*
X2429764Y-590296D02*
G01*
X2529840Y-590296D01*
X2538984Y-588772D01*
X2547620Y-584708D01*
X2554224Y-578104D01*
X2558288Y-569468D01*
X2559812Y-560324D01*
X2559812Y-339852D01*
X2558288Y-330708D01*
X2554224Y-322072D01*
X2547620Y-315468D01*
X2538984Y-311404D01*
X2529840Y-309880D01*
X2429764Y-309880D01*
X2420620Y-311404D01*
X2411984Y-315468D01*
X2405380Y-322072D01*
X2401316Y-330708D01*
X2399792Y-339852D01*
X2399792Y-560324D01*
X2401316Y-569468D01*
X2405380Y-578104D01*
X2411984Y-584708D01*
X2420620Y-588772D01*
G37*

%LPD*%
G36*
X1515364Y2425192D02*
G01*
X1481074Y2415794D01*
X1481074Y2409190D01*
X1499108Y2407412D01*
X1499006Y2279294D01*
X1498854Y2269998D01*
X1481328Y2267458D01*
X1481328Y2260600D01*
X1535430Y2260600D01*
X1535430Y2267458D01*
X1517904Y2269998D01*
X1517396Y2302256D01*
X1532382Y2317242D01*
X1566926Y2260600D01*
X1597152Y2260600D01*
X1597152Y2267458D01*
X1582674Y2269490D01*
X1545082Y2330196D01*
X1570736Y2355850D01*
X1591564Y2358644D01*
X1591564Y2366010D01*
X1540256Y2366010D01*
X1540256Y2358644D01*
X1557782Y2355088D01*
X1517396Y2313686D01*
X1517396Y2391918D01*
X1518412Y2423668D01*
G37*
G36*
X1220216Y2425192D02*
G01*
X1185926Y2415794D01*
X1185926Y2409190D01*
X1203960Y2407412D01*
X1203909Y2298090D01*
X1203452Y2269998D01*
X1185926Y2267458D01*
X1185926Y2260600D01*
X1240536Y2260600D01*
X1240536Y2267458D01*
X1222756Y2269998D01*
X1222248Y2307336D01*
X1222248Y2391918D01*
X1223264Y2423668D01*
G37*
G36*
X586740Y2413000D02*
G01*
X581558Y2412796D01*
X576376Y2412136D01*
X571296Y2411069D01*
X566318Y2409596D01*
X561441Y2407716D01*
X556666Y2405430D01*
X552145Y2402738D01*
X547725Y2399690D01*
X543560Y2396236D01*
X539648Y2392426D01*
X535990Y2388260D01*
X532587Y2383688D01*
X529539Y2378811D01*
X526796Y2373579D01*
X524408Y2367991D01*
X522427Y2362098D01*
X520801Y2355850D01*
X519633Y2349296D01*
X518922Y2342438D01*
X518668Y2335276D01*
X541782Y2335276D01*
X541934Y2341778D01*
X542442Y2348179D01*
X543255Y2354478D01*
X544423Y2360574D01*
X545947Y2366467D01*
X547827Y2372106D01*
X550062Y2377389D01*
X552653Y2382367D01*
X555599Y2386888D01*
X558901Y2391003D01*
X562559Y2394559D01*
X566623Y2397607D01*
X571093Y2400046D01*
X575919Y2401874D01*
X581152Y2402941D01*
X586740Y2403348D01*
X592328Y2402941D01*
X597560Y2401874D01*
X602386Y2400046D01*
X606806Y2397607D01*
X610819Y2394559D01*
X614527Y2391003D01*
X617778Y2386888D01*
X620725Y2382367D01*
X623265Y2377389D01*
X625449Y2372106D01*
X627329Y2366467D01*
X628802Y2360574D01*
X629970Y2354478D01*
X630783Y2348179D01*
X631291Y2341778D01*
X631444Y2335276D01*
X631291Y2328672D01*
X630783Y2322220D01*
X629970Y2315870D01*
X628802Y2309723D01*
X627329Y2303780D01*
X625449Y2298141D01*
X623265Y2292807D01*
X620725Y2287879D01*
X617778Y2283358D01*
X614527Y2279243D01*
X610819Y2275687D01*
X606806Y2272639D01*
X602386Y2270252D01*
X597560Y2268423D01*
X592328Y2267305D01*
X586740Y2266950D01*
X581152Y2267305D01*
X575919Y2268423D01*
X571093Y2270252D01*
X566623Y2272639D01*
X562559Y2275687D01*
X558901Y2279243D01*
X555599Y2283358D01*
X552653Y2287879D01*
X550062Y2292807D01*
X547827Y2298141D01*
X545947Y2303780D01*
X544423Y2309723D01*
X543255Y2315870D01*
X542442Y2322220D01*
X541934Y2328672D01*
X541782Y2335276D01*
X518668Y2335276D01*
X518922Y2327808D01*
X519633Y2320747D01*
X520801Y2314041D01*
X522376Y2307640D01*
X524357Y2301646D01*
X526745Y2296007D01*
X529488Y2290775D01*
X532536Y2285898D01*
X535889Y2281377D01*
X539546Y2277262D01*
X543458Y2273503D01*
X547624Y2270099D01*
X551992Y2267153D01*
X556564Y2264562D01*
X561340Y2262327D01*
X566216Y2260549D01*
X571195Y2259126D01*
X576326Y2258110D01*
X581507Y2257501D01*
X586740Y2257298D01*
X591972Y2257501D01*
X597154Y2258161D01*
X602234Y2259228D01*
X607263Y2260701D01*
X612140Y2262581D01*
X616864Y2264867D01*
X621385Y2267559D01*
X625754Y2270607D01*
X629869Y2274062D01*
X633780Y2277922D01*
X637438Y2282088D01*
X640791Y2286660D01*
X643839Y2291537D01*
X646531Y2296820D01*
X648868Y2302408D01*
X650849Y2308352D01*
X652424Y2314600D01*
X653592Y2321204D01*
X654304Y2328062D01*
X654558Y2335276D01*
X654304Y2342591D01*
X653592Y2349601D01*
X652424Y2356256D01*
X650798Y2362555D01*
X648817Y2368550D01*
X646430Y2374138D01*
X643686Y2379370D01*
X640638Y2384247D01*
X637235Y2388768D01*
X633577Y2392883D01*
X629666Y2396642D01*
X625551Y2400046D01*
X621182Y2403043D01*
X616610Y2405684D01*
X611886Y2407869D01*
X607060Y2409698D01*
X602081Y2411171D01*
X597052Y2412187D01*
X591921Y2412796D01*
G37*
G36*
X1052576Y2409444D02*
G01*
X1052576Y2401824D01*
X1073404Y2399538D01*
X1073658Y2342388D01*
X1093978Y2342388D01*
X1094079Y2379116D01*
X1094486Y2400808D01*
X1109980Y2400808D01*
X1118209Y2400401D01*
X1125270Y2399182D01*
X1131265Y2397099D01*
X1136142Y2394153D01*
X1139952Y2390241D01*
X1142644Y2385364D01*
X1144219Y2379522D01*
X1144778Y2372614D01*
X1144219Y2365349D01*
X1142441Y2359101D01*
X1139494Y2353919D01*
X1135329Y2349703D01*
X1129944Y2346452D01*
X1123238Y2344166D01*
X1115263Y2342845D01*
X1105916Y2342388D01*
X1073658Y2342388D01*
X1073658Y2333244D01*
X1106932Y2333244D01*
X1114247Y2333040D01*
X1120902Y2332329D01*
X1126794Y2331212D01*
X1132027Y2329637D01*
X1136650Y2327605D01*
X1140561Y2325116D01*
X1143863Y2322220D01*
X1146505Y2318816D01*
X1148537Y2315006D01*
X1150010Y2310790D01*
X1150823Y2306116D01*
X1151128Y2300986D01*
X1150823Y2296109D01*
X1149959Y2291588D01*
X1148486Y2287473D01*
X1146403Y2283764D01*
X1143762Y2280513D01*
X1140510Y2277618D01*
X1136700Y2275179D01*
X1132332Y2273147D01*
X1127353Y2271572D01*
X1121765Y2270404D01*
X1115669Y2269744D01*
X1108964Y2269490D01*
X1094486Y2269490D01*
X1094028Y2300122D01*
X1093978Y2333244D01*
X1073658Y2333244D01*
X1073404Y2270506D01*
X1052576Y2268220D01*
X1052576Y2260600D01*
X1113282Y2260600D01*
X1120952Y2260854D01*
X1128014Y2261514D01*
X1134465Y2262632D01*
X1140409Y2264105D01*
X1145743Y2265934D01*
X1150569Y2268118D01*
X1154887Y2270556D01*
X1158646Y2273300D01*
X1161948Y2276246D01*
X1164742Y2279446D01*
X1167079Y2282799D01*
X1168958Y2286304D01*
X1170432Y2289962D01*
X1171397Y2293670D01*
X1172006Y2297430D01*
X1172210Y2301240D01*
X1171956Y2305710D01*
X1171143Y2310079D01*
X1169771Y2314194D01*
X1167841Y2318054D01*
X1165301Y2321712D01*
X1162202Y2325116D01*
X1158392Y2328214D01*
X1153972Y2330958D01*
X1148842Y2333396D01*
X1143050Y2335428D01*
X1136548Y2337104D01*
X1129284Y2338324D01*
X1138123Y2340660D01*
X1145540Y2343759D01*
X1151686Y2347569D01*
X1156563Y2351938D01*
X1160272Y2356815D01*
X1162862Y2362098D01*
X1164336Y2367635D01*
X1164844Y2373376D01*
X1164488Y2378506D01*
X1163421Y2383383D01*
X1161694Y2387904D01*
X1159256Y2392121D01*
X1156157Y2395931D01*
X1152347Y2399334D01*
X1147927Y2402281D01*
X1142847Y2404770D01*
X1137107Y2406751D01*
X1130706Y2408224D01*
X1123696Y2409139D01*
X1116076Y2409444D01*
G37*
G36*
X1430020Y2369058D02*
G01*
X1424990Y2368804D01*
X1420063Y2368092D01*
X1415237Y2366924D01*
X1410563Y2365248D01*
X1406093Y2363165D01*
X1401775Y2360625D01*
X1397762Y2357628D01*
X1394002Y2354224D01*
X1390599Y2350414D01*
X1387500Y2346198D01*
X1384808Y2341575D01*
X1382522Y2336596D01*
X1380693Y2331212D01*
X1379321Y2325471D01*
X1378508Y2319375D01*
X1378204Y2312924D01*
X1378458Y2306726D01*
X1379118Y2300833D01*
X1380236Y2295296D01*
X1381810Y2290064D01*
X1383792Y2285187D01*
X1386128Y2280615D01*
X1388872Y2276500D01*
X1391970Y2272690D01*
X1395425Y2269337D01*
X1399235Y2266340D01*
X1403350Y2263800D01*
X1407769Y2261666D01*
X1412494Y2259990D01*
X1417472Y2258771D01*
X1422755Y2258060D01*
X1428242Y2257806D01*
X1435709Y2258263D01*
X1442567Y2259634D01*
X1448765Y2261870D01*
X1454302Y2264918D01*
X1459128Y2268778D01*
X1463294Y2273452D01*
X1466799Y2278837D01*
X1469644Y2284984D01*
X1465072Y2287016D01*
X1462227Y2283256D01*
X1459026Y2279904D01*
X1455470Y2277008D01*
X1451660Y2274620D01*
X1447596Y2272741D01*
X1443278Y2271369D01*
X1438757Y2270556D01*
X1434084Y2270252D01*
X1428902Y2270607D01*
X1423924Y2271572D01*
X1419352Y2273249D01*
X1415034Y2275535D01*
X1411173Y2278430D01*
X1407668Y2281936D01*
X1404620Y2286050D01*
X1402080Y2290724D01*
X1399997Y2295956D01*
X1398524Y2301748D01*
X1397558Y2308098D01*
X1397254Y2314956D01*
X1397558Y2321915D01*
X1398371Y2328418D01*
X1399692Y2334310D01*
X1401572Y2339695D01*
X1403858Y2344470D01*
X1406652Y2348687D01*
X1409852Y2352294D01*
X1413459Y2355240D01*
X1417421Y2357628D01*
X1421688Y2359304D01*
X1426362Y2360320D01*
X1431290Y2360676D01*
X1437081Y2360117D01*
X1443228Y2358644D01*
X1447546Y2342896D01*
X1448968Y2338578D01*
X1451305Y2335326D01*
X1454810Y2333193D01*
X1459484Y2332482D01*
X1462938Y2332990D01*
X1465732Y2334564D01*
X1467815Y2337104D01*
X1469136Y2340610D01*
X1467408Y2346553D01*
X1464513Y2352040D01*
X1460652Y2356866D01*
X1455877Y2361031D01*
X1450289Y2364435D01*
X1444040Y2366924D01*
X1437284Y2368499D01*
G37*
G36*
X1307592Y2369058D02*
G01*
X1302766Y2368854D01*
X1297940Y2368143D01*
X1293266Y2367026D01*
X1288694Y2365451D01*
X1284274Y2363470D01*
X1280058Y2361031D01*
X1276045Y2358136D01*
X1272336Y2354783D01*
X1268933Y2351074D01*
X1265885Y2346858D01*
X1263142Y2342286D01*
X1260856Y2337257D01*
X1259027Y2331770D01*
X1257655Y2325928D01*
X1256842Y2319629D01*
X1256538Y2312924D01*
X1276858Y2312924D01*
X1277112Y2320391D01*
X1277772Y2327198D01*
X1278890Y2333447D01*
X1280464Y2339086D01*
X1282496Y2344064D01*
X1284884Y2348433D01*
X1287729Y2352141D01*
X1290929Y2355189D01*
X1294536Y2357577D01*
X1298549Y2359304D01*
X1302867Y2360320D01*
X1307592Y2360676D01*
X1312265Y2360320D01*
X1316583Y2359304D01*
X1320546Y2357577D01*
X1324152Y2355189D01*
X1327353Y2352141D01*
X1330198Y2348433D01*
X1332636Y2344064D01*
X1334668Y2339086D01*
X1336243Y2333447D01*
X1337411Y2327198D01*
X1338072Y2320391D01*
X1338326Y2312924D01*
X1338072Y2305608D01*
X1337411Y2298903D01*
X1336243Y2292756D01*
X1334668Y2287270D01*
X1332636Y2282393D01*
X1330198Y2278126D01*
X1327353Y2274519D01*
X1324152Y2271522D01*
X1320546Y2269185D01*
X1316583Y2267508D01*
X1312265Y2266543D01*
X1307592Y2266188D01*
X1302867Y2266543D01*
X1298549Y2267508D01*
X1294536Y2269185D01*
X1290929Y2271522D01*
X1287729Y2274519D01*
X1284884Y2278126D01*
X1282496Y2282393D01*
X1280464Y2287270D01*
X1278890Y2292756D01*
X1277772Y2298903D01*
X1277112Y2305608D01*
X1276858Y2312924D01*
X1256538Y2312924D01*
X1256842Y2306269D01*
X1257655Y2300071D01*
X1259027Y2294280D01*
X1260856Y2288895D01*
X1263091Y2283917D01*
X1265783Y2279396D01*
X1268831Y2275332D01*
X1272235Y2271623D01*
X1275943Y2268423D01*
X1279956Y2265578D01*
X1284173Y2263241D01*
X1288592Y2261260D01*
X1293164Y2259736D01*
X1297889Y2258669D01*
X1302715Y2258009D01*
X1307592Y2257806D01*
X1312418Y2258009D01*
X1317244Y2258669D01*
X1321968Y2259736D01*
X1326540Y2261260D01*
X1330960Y2263241D01*
X1335227Y2265578D01*
X1339240Y2268423D01*
X1342948Y2271623D01*
X1346403Y2275332D01*
X1349502Y2279396D01*
X1352194Y2283917D01*
X1354531Y2288895D01*
X1356360Y2294280D01*
X1357782Y2300071D01*
X1358595Y2306269D01*
X1358900Y2312924D01*
X1358595Y2319680D01*
X1357782Y2325979D01*
X1356360Y2331872D01*
X1354531Y2337358D01*
X1352194Y2342388D01*
X1349502Y2346960D01*
X1346403Y2351176D01*
X1342948Y2354884D01*
X1339240Y2358186D01*
X1335227Y2361082D01*
X1330960Y2363520D01*
X1326540Y2365502D01*
X1321968Y2367076D01*
X1317244Y2368143D01*
X1312418Y2368854D01*
G37*
G36*
X991362Y2369058D02*
G01*
X986180Y2368702D01*
X980897Y2367635D01*
X975664Y2365908D01*
X970483Y2363520D01*
X965403Y2360574D01*
X960475Y2357069D01*
X955852Y2353005D01*
X951484Y2348484D01*
X949452Y2366772D01*
X946403Y2368804D01*
X915162Y2356612D01*
X915162Y2350008D01*
X932942Y2348230D01*
X933450Y2319020D01*
X933196Y2269998D01*
X916686Y2267458D01*
X916686Y2260600D01*
X967740Y2260600D01*
X967740Y2267458D01*
X952500Y2269998D01*
X951992Y2307336D01*
X951992Y2340356D01*
X960374Y2347061D01*
X968146Y2351633D01*
X975614Y2354275D01*
X982980Y2355088D01*
X987552Y2354732D01*
X991463Y2353716D01*
X994664Y2351836D01*
X997203Y2349144D01*
X999134Y2345486D01*
X1000506Y2340813D01*
X1001268Y2335072D01*
X1001521Y2328164D01*
X1001268Y2269998D01*
X984758Y2267458D01*
X984758Y2260600D01*
X1035812Y2260600D01*
X1035812Y2267458D01*
X1020318Y2269998D01*
X1019810Y2307336D01*
X1019810Y2328672D01*
X1019352Y2338628D01*
X1018032Y2347112D01*
X1015847Y2354072D01*
X1012748Y2359609D01*
X1008735Y2363825D01*
X1003858Y2366772D01*
X998067Y2368499D01*
G37*
G36*
X855726Y2369058D02*
G01*
X850646Y2368804D01*
X845667Y2368042D01*
X840841Y2366772D01*
X836168Y2365044D01*
X831748Y2362911D01*
X827532Y2360269D01*
X823569Y2357221D01*
X819912Y2353716D01*
X816559Y2349855D01*
X813612Y2345588D01*
X810971Y2340965D01*
X808786Y2335936D01*
X807008Y2330602D01*
X805738Y2324912D01*
X805453Y2322830D01*
X824484Y2322830D01*
X825804Y2332024D01*
X828141Y2339898D01*
X831342Y2346401D01*
X835202Y2351633D01*
X839673Y2355646D01*
X844499Y2358491D01*
X849579Y2360117D01*
X854710Y2360676D01*
X859942Y2360117D01*
X864666Y2358542D01*
X868883Y2356104D01*
X872439Y2352852D01*
X875385Y2348992D01*
X877519Y2344623D01*
X878890Y2339797D01*
X879348Y2334768D01*
X878840Y2329738D01*
X876960Y2325776D01*
X873252Y2323236D01*
X867156Y2322322D01*
X824484Y2322830D01*
X805453Y2322830D01*
X804926Y2318969D01*
X804672Y2312670D01*
X804926Y2306320D01*
X805586Y2300325D01*
X806754Y2294686D01*
X808329Y2289403D01*
X810310Y2284526D01*
X812698Y2280005D01*
X815441Y2275890D01*
X818591Y2272182D01*
X822045Y2268880D01*
X825855Y2265984D01*
X830021Y2263546D01*
X834440Y2261463D01*
X839216Y2259888D01*
X844194Y2258720D01*
X849477Y2258060D01*
X854964Y2257806D01*
X862025Y2258263D01*
X868629Y2259584D01*
X874674Y2261666D01*
X880211Y2264613D01*
X885190Y2268270D01*
X889660Y2272588D01*
X893521Y2277618D01*
X896874Y2283206D01*
X892556Y2286254D01*
X886256Y2279700D01*
X879297Y2274620D01*
X871067Y2271420D01*
X861060Y2270252D01*
X855827Y2270556D01*
X850849Y2271471D01*
X846226Y2272995D01*
X841959Y2275179D01*
X838098Y2277922D01*
X834644Y2281326D01*
X831646Y2285288D01*
X829106Y2289911D01*
X827074Y2295093D01*
X825550Y2300935D01*
X824585Y2307386D01*
X824230Y2314448D01*
X895603Y2314194D01*
X896874Y2319629D01*
X897382Y2326640D01*
X897026Y2332990D01*
X895959Y2338882D01*
X894232Y2344318D01*
X891895Y2349246D01*
X888949Y2353716D01*
X885494Y2357678D01*
X881532Y2361031D01*
X877112Y2363876D01*
X872286Y2366111D01*
X867105Y2367737D01*
X861568Y2368702D01*
G37*
G36*
X742442Y2369058D02*
G01*
X738073Y2368804D01*
X733704Y2368143D01*
X729386Y2366924D01*
X725068Y2365197D01*
X720852Y2362911D01*
X716686Y2360066D01*
X712622Y2356612D01*
X708660Y2352548D01*
X707136Y2366772D01*
X704088Y2368804D01*
X672846Y2356612D01*
X672846Y2350008D01*
X690626Y2348230D01*
X691184Y2334869D01*
X691388Y2319020D01*
X691388Y2280158D01*
X709676Y2280158D01*
X709676Y2345690D01*
X718007Y2351887D01*
X725170Y2355596D01*
X731418Y2357424D01*
X736854Y2357882D01*
X740918Y2357577D01*
X744778Y2356612D01*
X748436Y2354986D01*
X751738Y2352751D01*
X754786Y2349906D01*
X757478Y2346401D01*
X759866Y2342286D01*
X761847Y2337511D01*
X763422Y2332177D01*
X764590Y2326182D01*
X765302Y2319629D01*
X765556Y2312416D01*
X765251Y2305100D01*
X764438Y2298547D01*
X763117Y2292705D01*
X761288Y2287574D01*
X759053Y2283104D01*
X756462Y2279294D01*
X753465Y2276144D01*
X750163Y2273604D01*
X746607Y2271674D01*
X742797Y2270302D01*
X738733Y2269490D01*
X734568Y2269236D01*
X728218Y2269845D01*
X722020Y2271725D01*
X715873Y2275128D01*
X709676Y2280158D01*
X691388Y2280158D01*
X691337Y2245156D01*
X690880Y2216912D01*
X672846Y2214118D01*
X672846Y2207260D01*
X729742Y2207260D01*
X729742Y2214118D01*
X709422Y2217166D01*
X708914Y2255012D01*
X708914Y2272538D01*
X716280Y2265426D01*
X723849Y2260904D01*
X731469Y2258517D01*
X739140Y2257806D01*
X743966Y2258060D01*
X748639Y2258822D01*
X753059Y2260041D01*
X757326Y2261717D01*
X761339Y2263851D01*
X765098Y2266442D01*
X768604Y2269490D01*
X771804Y2272893D01*
X774700Y2276754D01*
X777290Y2281021D01*
X779526Y2285593D01*
X781405Y2290572D01*
X782878Y2295956D01*
X783945Y2301595D01*
X784656Y2307640D01*
X784860Y2313940D01*
X784504Y2322220D01*
X783386Y2329942D01*
X781608Y2337003D01*
X779170Y2343454D01*
X776173Y2349246D01*
X772617Y2354376D01*
X768553Y2358745D01*
X764032Y2362403D01*
X759155Y2365248D01*
X753872Y2367381D01*
X748284Y2368651D01*
G37*
G36*
X837793Y2189022D02*
G01*
X832612Y2188768D01*
X827430Y2188159D01*
X822350Y2187092D01*
X817372Y2185619D01*
X812495Y2183688D01*
X807770Y2181453D01*
X803198Y2178761D01*
X798830Y2175662D01*
X794664Y2172258D01*
X790702Y2168448D01*
X787044Y2164232D01*
X783691Y2159711D01*
X780592Y2154834D01*
X777849Y2149551D01*
X775462Y2144014D01*
X773480Y2138070D01*
X771855Y2131872D01*
X770686Y2125319D01*
X769975Y2118461D01*
X769721Y2111298D01*
X792835Y2111298D01*
X792988Y2117750D01*
X793496Y2124202D01*
X794359Y2130501D01*
X795528Y2136597D01*
X797052Y2142490D01*
X798880Y2148128D01*
X801116Y2153412D01*
X803706Y2158339D01*
X806653Y2162911D01*
X809955Y2166975D01*
X813663Y2170582D01*
X817727Y2173630D01*
X822147Y2176068D01*
X826973Y2177846D01*
X832205Y2178964D01*
X837793Y2179370D01*
X843432Y2178964D01*
X848614Y2177846D01*
X853440Y2176068D01*
X857859Y2173630D01*
X861923Y2170582D01*
X865581Y2166975D01*
X868832Y2162911D01*
X871778Y2158339D01*
X874318Y2153412D01*
X876553Y2148128D01*
X878382Y2142490D01*
X879856Y2136597D01*
X881024Y2130501D01*
X881837Y2124202D01*
X882345Y2117750D01*
X882497Y2111298D01*
X882345Y2104694D01*
X881837Y2098192D01*
X881024Y2091842D01*
X879856Y2085695D01*
X878382Y2079802D01*
X876553Y2074164D01*
X874318Y2068830D01*
X871778Y2063851D01*
X868832Y2059330D01*
X865581Y2055266D01*
X861923Y2051710D01*
X857859Y2048662D01*
X853440Y2046224D01*
X848614Y2044446D01*
X843432Y2043328D01*
X837793Y2042972D01*
X832205Y2043328D01*
X826973Y2044446D01*
X822147Y2046224D01*
X817727Y2048662D01*
X813663Y2051710D01*
X809955Y2055266D01*
X806653Y2059330D01*
X803706Y2063851D01*
X801116Y2068830D01*
X798880Y2074164D01*
X797052Y2079802D01*
X795528Y2085695D01*
X794359Y2091842D01*
X793496Y2098192D01*
X792988Y2104694D01*
X792835Y2111298D01*
X769721Y2111298D01*
X769975Y2103831D01*
X770686Y2096770D01*
X771855Y2090013D01*
X773430Y2083663D01*
X775462Y2077669D01*
X777798Y2072030D01*
X780542Y2066747D01*
X783590Y2061870D01*
X786942Y2057349D01*
X790600Y2053234D01*
X794562Y2049475D01*
X798677Y2046122D01*
X803097Y2043125D01*
X807618Y2040534D01*
X812393Y2038350D01*
X817270Y2036521D01*
X822248Y2035098D01*
X827379Y2034133D01*
X832561Y2033524D01*
X837793Y2033320D01*
X843026Y2033524D01*
X848207Y2034133D01*
X853338Y2035200D01*
X858316Y2036724D01*
X863193Y2038604D01*
X867918Y2040889D01*
X872439Y2043582D01*
X876808Y2046630D01*
X880973Y2050084D01*
X884834Y2053894D01*
X888492Y2058111D01*
X891844Y2062632D01*
X894892Y2067560D01*
X897585Y2072792D01*
X899972Y2078431D01*
X901953Y2084324D01*
X903528Y2090623D01*
X904646Y2097176D01*
X905357Y2104085D01*
X905611Y2111298D01*
X905357Y2118614D01*
X904646Y2125624D01*
X903478Y2132279D01*
X901903Y2138578D01*
X899871Y2144522D01*
X897483Y2150110D01*
X894740Y2155393D01*
X891692Y2160270D01*
X888339Y2164740D01*
X884682Y2168906D01*
X880770Y2172665D01*
X876604Y2176068D01*
X872236Y2179066D01*
X867664Y2181656D01*
X862990Y2183892D01*
X858113Y2185720D01*
X853135Y2187143D01*
X848106Y2188159D01*
X842975Y2188768D01*
G37*
G36*
X1268577Y2185466D02*
G01*
X1268577Y2177846D01*
X1289405Y2175560D01*
X1289862Y2146147D01*
X1289913Y2114600D01*
X1310233Y2114600D01*
X1310487Y2176830D01*
X1329791Y2176830D01*
X1337970Y2176322D01*
X1344980Y2174798D01*
X1350822Y2172360D01*
X1355598Y2168956D01*
X1359204Y2164689D01*
X1361795Y2159558D01*
X1363319Y2153615D01*
X1363827Y2146858D01*
X1363268Y2140102D01*
X1361592Y2133955D01*
X1358798Y2128469D01*
X1354937Y2123744D01*
X1349908Y2119884D01*
X1343812Y2116988D01*
X1336598Y2115210D01*
X1328267Y2114600D01*
X1289913Y2114600D01*
X1289812Y2068525D01*
X1289405Y2046528D01*
X1268577Y2044242D01*
X1268577Y2036622D01*
X1331315Y2036622D01*
X1331315Y2044242D01*
X1310487Y2046782D01*
X1310233Y2106218D01*
X1321917Y2106218D01*
X1328369Y2105964D01*
X1333855Y2105253D01*
X1338478Y2103932D01*
X1342390Y2101900D01*
X1345590Y2098954D01*
X1348232Y2095042D01*
X1350365Y2090064D01*
X1352143Y2083866D01*
X1361287Y2048560D01*
X1363980Y2041906D01*
X1368399Y2037537D01*
X1374952Y2035048D01*
X1383893Y2034336D01*
X1388821Y2034438D01*
X1393342Y2034895D01*
X1397304Y2035606D01*
X1400657Y2036622D01*
X1400657Y2044242D01*
X1383385Y2046020D01*
X1373225Y2080818D01*
X1371193Y2086864D01*
X1368907Y2092045D01*
X1366266Y2096516D01*
X1363218Y2100224D01*
X1359814Y2103272D01*
X1355902Y2105710D01*
X1351534Y2107590D01*
X1346555Y2109012D01*
X1352651Y2110282D01*
X1358188Y2112060D01*
X1363218Y2114245D01*
X1367739Y2116785D01*
X1371701Y2119630D01*
X1375156Y2122830D01*
X1378051Y2126284D01*
X1380439Y2129993D01*
X1382268Y2133904D01*
X1383588Y2138019D01*
X1384401Y2142236D01*
X1384655Y2146604D01*
X1384249Y2152497D01*
X1383030Y2158034D01*
X1381048Y2163064D01*
X1378254Y2167585D01*
X1374749Y2171700D01*
X1370533Y2175256D01*
X1365605Y2178304D01*
X1359966Y2180844D01*
X1353718Y2182825D01*
X1346758Y2184298D01*
X1339240Y2185162D01*
X1331061Y2185466D01*
G37*
G36*
X1134465Y2185466D02*
G01*
X1134465Y2177846D01*
X1155293Y2175560D01*
X1155750Y2146147D01*
X1155801Y2083257D01*
X1155293Y2046528D01*
X1134465Y2044242D01*
X1134465Y2036622D01*
X1249273Y2036622D01*
X1250289Y2076246D01*
X1239367Y2076246D01*
X1233525Y2046274D01*
X1176375Y2046274D01*
X1176121Y2107996D01*
X1209649Y2107996D01*
X1212697Y2086406D01*
X1221841Y2086406D01*
X1221841Y2138730D01*
X1212697Y2138730D01*
X1209649Y2116886D01*
X1176121Y2116886D01*
X1176375Y2175814D01*
X1229207Y2175814D01*
X1235049Y2146350D01*
X1246225Y2146350D01*
X1244955Y2185466D01*
G37*
G36*
X912977Y2185466D02*
G01*
X912977Y2177846D01*
X931265Y2175814D01*
X971651Y2035098D01*
X980795Y2035098D01*
X1017625Y2152954D01*
X1055979Y2035098D01*
X1065377Y2035098D01*
X1102969Y2175306D01*
X1122273Y2177846D01*
X1122273Y2185466D01*
X1071473Y2185466D01*
X1071473Y2177846D01*
X1092555Y2175052D01*
X1063853Y2067864D01*
X1029817Y2175306D01*
X1052677Y2177846D01*
X1052677Y2185466D01*
X992987Y2185466D01*
X992987Y2177846D01*
X1015339Y2175306D01*
X981049Y2068626D01*
X952093Y2175306D01*
X972921Y2177846D01*
X972921Y2185466D01*
G37*
G36*
X637895Y2185466D02*
G01*
X637895Y2177846D01*
X658723Y2175560D01*
X658977Y2105202D01*
X679297Y2105202D01*
X679450Y2154326D01*
X679805Y2176830D01*
X694029Y2176830D01*
X700379Y2176526D01*
X706170Y2175764D01*
X711301Y2174494D01*
X715924Y2172665D01*
X719886Y2170379D01*
X723341Y2167636D01*
X726236Y2164384D01*
X728573Y2160727D01*
X730351Y2156561D01*
X731621Y2151989D01*
X732383Y2146960D01*
X732637Y2141524D01*
X732434Y2136241D01*
X731672Y2131314D01*
X730453Y2126742D01*
X728726Y2122474D01*
X726440Y2118664D01*
X723544Y2115261D01*
X720140Y2112264D01*
X716076Y2109774D01*
X711454Y2107844D01*
X706120Y2106371D01*
X700176Y2105507D01*
X693521Y2105202D01*
X658977Y2105202D01*
X658723Y2046528D01*
X637895Y2044242D01*
X637895Y2036622D01*
X700887Y2036622D01*
X700887Y2044242D01*
X679805Y2046782D01*
X679348Y2071573D01*
X679297Y2096058D01*
X699363Y2096262D01*
X706831Y2096973D01*
X713689Y2098090D01*
X719937Y2099614D01*
X725576Y2101545D01*
X730707Y2103882D01*
X735228Y2106472D01*
X739241Y2109419D01*
X742696Y2112670D01*
X745642Y2116175D01*
X748080Y2119934D01*
X750062Y2123897D01*
X751586Y2128062D01*
X752652Y2132380D01*
X753262Y2136902D01*
X753465Y2141524D01*
X753262Y2146350D01*
X752602Y2150973D01*
X751535Y2155342D01*
X750011Y2159508D01*
X748080Y2163419D01*
X745693Y2167026D01*
X742899Y2170328D01*
X739648Y2173376D01*
X735939Y2176119D01*
X731774Y2178507D01*
X727202Y2180590D01*
X722172Y2182317D01*
X716737Y2183638D01*
X710793Y2184654D01*
X704443Y2185263D01*
X697585Y2185466D01*
G37*
G36*
X1074978Y-1399997D02*
G01*
X589991Y-1505000D01*
X170027Y-1519986D01*
X170027Y-1680006D01*
X700024Y-1655013D01*
X884986Y-1610004D01*
X1364996Y-1554988D01*
G37*
G36*
X4409998Y1664970D02*
G01*
X4409998Y1344980D01*
X4560011Y1449984D01*
X4560011Y1664970D01*
G37*
D11*
X5620004Y1230121D02*
G01*
X5190134Y1230121D01*
X5074996Y1114983D01*
X5074996Y639978D01*
X5168112Y546862D01*
X5336031Y546862D01*
X5074920Y640079D02*
G01*
X5074920Y125069D01*
X5161127Y38862D01*
X5336031Y38862D01*
X5336031Y546862D02*
G01*
X5191759Y546862D01*
X5074920Y430021D01*
D12*
X651002Y-1603247D02*
G01*
X729234Y-1525015D01*
X789939Y-1525015D01*
X1690878Y-2007615D02*
G01*
X1718310Y-2035047D01*
X1750060Y-2035047D01*
D11*
X5336031Y38862D02*
G01*
X5844031Y38862D01*
D12*
X2390902Y-2243836D02*
G01*
X2366162Y-2243836D01*
X2190013Y-2419985D01*
X1209979Y-2419985D01*
X1086865Y-2296871D01*
X1086865Y-2280157D01*
X1086865Y-2000250D02*
G01*
X1086865Y-2280157D01*
X1087120Y-1720087D02*
G01*
X1086865Y-1720342D01*
X1086865Y-2000250D01*
D13*
X3150108Y-1449831D02*
G01*
X3150108Y-1444675D01*
X1244523Y-1445158D01*
X1064260Y-1264920D01*
X1064260Y639318D01*
X1189989Y765047D01*
X1442110Y764997D01*
X1564995Y891438D01*
X1564995Y1098397D01*
X1691970Y1219200D01*
X2260092Y1219200D01*
X2364739Y1116076D01*
X2364739Y893318D01*
D11*
X2109978Y893318D02*
G01*
X2109978Y685012D01*
X2275001Y519988D01*
X2629992Y519988D01*
X2722499Y612495D01*
X2722499Y612495D02*
G01*
X2769997Y659993D01*
X2769997Y1099997D01*
X2880004Y1210005D01*
X3399993Y1210005D01*
X3494024Y1115974D01*
X3494024Y892302D01*
X3240024Y892302D02*
G01*
X3240024Y660907D01*
X3400043Y500887D01*
X5336031Y-318007D02*
G01*
X5844031Y-318007D01*
X5336031Y-572007D02*
G01*
X5844031Y-572007D01*
X5336031Y-826007D02*
G01*
X5844031Y-826007D01*
X5336031Y-1080007D02*
G01*
X5844031Y-1080007D01*
X5336031Y-1334007D02*
G01*
X5844031Y-1334007D01*
X5336031Y-1588007D02*
G01*
X5844031Y-1588007D01*
X5336031Y-1842007D02*
G01*
X5844031Y-1842007D01*
X5336031Y800862D02*
G01*
X5844031Y800862D01*
X5336031Y546862D02*
G01*
X5844031Y546862D01*
X5336031Y292862D02*
G01*
X5844031Y292862D01*
X4740909Y1474978D02*
G01*
X4740909Y-303021D01*
X4740909Y-557021D02*
G01*
X4740909Y-2335021D01*
D14*
X2590038Y987044D02*
G01*
X2457704Y987044D01*
X2363978Y893318D01*
X2525013Y987044D02*
G01*
X2456941Y987044D01*
X2363978Y1080007D01*
X1530095Y-479805D02*
G01*
X1667002Y-616712D01*
X2020062Y-616712D01*
X1667002Y-616712D02*
G01*
X1505000Y-615010D01*
X2020062Y-616712D02*
G01*
X2020062Y-822960D01*
X2019807Y-823213D01*
X2020062Y-720089D02*
G01*
X1916684Y-616712D01*
X1869947Y-616712D01*
X2924987Y501954D02*
G01*
X2919984Y494995D01*
X2624886Y494995D01*
X2599943Y519937D01*
X2770124Y659892D02*
G01*
X2770124Y651510D01*
X2924987Y501954D01*
X2769793Y570179D02*
G01*
X2769793Y530174D01*
D13*
X400050Y179831D02*
G01*
X400050Y-570052D01*
X467029Y-637031D01*
X729995Y-637031D01*
D14*
X400050Y-569976D02*
G01*
X372541Y-542467D01*
X70002Y-845007D01*
X70002Y-1340002D01*
X130047Y-1400047D01*
X249936Y-1400047D01*
X400050Y-569976D02*
G01*
X450087Y-620013D01*
X450087Y-1339850D01*
X389889Y-1400047D01*
X249936Y-1400047D01*
X222504Y-692404D02*
G01*
X277876Y-637031D01*
X467105Y-637031D01*
X1065021Y-1264920D02*
G01*
X1025067Y-1264920D01*
X764997Y-1524990D01*
D12*
X932942Y-2279650D02*
G01*
X824661Y-2279650D01*
X469900Y-1924888D01*
X469900Y-1603247D01*
X469900Y-1705102D02*
G01*
X368045Y-1603247D01*
X253237Y-1603247D01*
X469900Y-1705102D02*
G01*
X571754Y-1603247D01*
X651002Y-1603247D01*
X3400043Y500887D02*
G01*
X3400043Y430047D01*
X3294989Y324993D01*
X3116808Y146812D01*
X2925063Y146812D01*
D14*
X2479802Y-1050036D02*
G01*
X2594940Y-1050036D01*
X2822524Y-822452D01*
X2925063Y-822452D01*
X1984755Y507492D02*
G01*
X1984755Y559815D01*
X2109978Y685037D01*
D15*
X2075103Y629996D02*
G01*
X2180005Y629996D01*
D14*
X1545081Y-110489D02*
G01*
X1545081Y-464820D01*
X1530095Y-479805D01*
D11*
X1430020Y1449831D02*
G01*
X1104849Y1775002D01*
X650011Y1775002D01*
X119989Y1244980D01*
X119989Y459892D01*
X400050Y179831D01*
X1430020Y1449831D02*
G01*
X1199895Y1449831D01*
X720089Y970026D01*
X720089Y474979D01*
X400050Y179831D01*
X237489Y342392D02*
G01*
X578612Y342392D01*
X604773Y368554D01*
X1199895Y1449831D02*
G01*
X1199895Y1679955D01*
X1104900Y1774952D01*
D12*
X4486909Y1475739D02*
G01*
X4486909Y1508252D01*
X4355084Y1640839D01*
X3914902Y1640839D01*
X3839972Y1564639D01*
X3839972Y1350010D01*
X3750056Y1259839D01*
X3450081Y1259839D01*
X3400043Y1209039D01*
X4486909Y1221739D02*
G01*
X4357877Y1350010D01*
X3904995Y1350010D01*
X3769868Y1214881D01*
X3405124Y1214881D01*
X3400043Y1209039D01*
X4486909Y966978D02*
G01*
X4486909Y1068070D01*
X4459986Y1094994D01*
X3515106Y1094994D01*
X3494024Y1116076D01*
X4486909Y713739D02*
G01*
X4477004Y713739D01*
X4350004Y840739D01*
X3546322Y840739D01*
X3494024Y892302D01*
X3614927Y1260094D02*
G01*
X3225038Y1260094D01*
X3175000Y1210055D01*
X3599941Y1094994D02*
G01*
X3599941Y1199895D01*
X3614927Y1214881D01*
X3649979Y1094994D02*
G01*
X3614927Y1130045D01*
X3614927Y1260094D01*
X3670045Y1214881D02*
G01*
X3659962Y1224965D01*
X3599941Y1164945D01*
X3599941Y1094994D01*
X3610102Y839978D02*
G01*
X3494024Y956055D01*
X3494024Y970026D01*
X3614927Y839978D02*
G01*
X3545001Y770051D01*
X3494024Y892302D01*
X3605022Y1094994D02*
G01*
X3494024Y983995D01*
X3494024Y892302D01*
X3849877Y1094994D02*
G01*
X3729990Y1214881D01*
X3720084Y1214881D01*
X3400043Y500887D02*
G01*
X3484143Y584987D01*
X4360011Y584987D01*
X4486909Y458978D01*
X4486909Y205739D02*
G01*
X4356861Y335026D01*
X3590036Y335026D01*
X3411981Y512826D01*
X3400043Y500379D01*
X4486909Y-48260D02*
G01*
X4357877Y80010D01*
X3780027Y80010D01*
X3379470Y480313D01*
X3400043Y500379D01*
X4486909Y-302260D02*
G01*
X4358893Y-175260D01*
X3919981Y-175260D01*
X3759961Y-15239D01*
X3759961Y40639D01*
X3349497Y450342D01*
X3400043Y500379D01*
X3590036Y335026D02*
G01*
X3590036Y270002D01*
X3664965Y195071D01*
X3644900Y335026D02*
G01*
X3634993Y335026D01*
X3634993Y225044D01*
X3664965Y195071D01*
X3644900Y335026D02*
G01*
X3644900Y324865D01*
X3590036Y270002D01*
X3645001Y99999D02*
G01*
X3659886Y134873D01*
X3725163Y134873D01*
X3780027Y80010D01*
X3759987Y-16763D02*
G01*
X3385058Y359918D01*
X3337559Y359918D01*
X3337559Y367537D01*
X3830065Y80010D02*
G01*
X3759961Y9905D01*
X3759961Y-16763D01*
D11*
X4486909Y1474978D02*
G01*
X4486909Y712978D01*
D12*
X4350004Y839978D02*
G01*
X4477004Y966978D01*
X4486909Y966978D01*
X4350004Y840739D02*
G01*
X4466081Y840739D01*
X4486909Y819912D01*
X4350004Y1094994D02*
G01*
X4360925Y1094994D01*
X4486909Y1220978D01*
X4360925Y1094994D02*
G01*
X4486909Y969010D01*
X4486909Y914907D01*
X4350004Y1350010D02*
G01*
X4361941Y1350010D01*
X4486909Y1474978D01*
X4350004Y1350010D02*
G01*
X4481829Y1350010D01*
X4486909Y1344929D01*
X4355084Y1640839D02*
G01*
X4529150Y1640839D01*
X4534992Y1634997D01*
D11*
X4486909Y459739D02*
G01*
X4486909Y-302260D01*
D12*
X4350004Y335026D02*
G01*
X4362958Y335026D01*
X4486909Y458978D01*
X4350004Y335026D02*
G01*
X4486909Y335026D01*
X4350004Y80010D02*
G01*
X4361941Y80010D01*
X4486909Y204978D01*
X4361941Y80010D02*
G01*
X4481829Y80010D01*
X4486909Y74929D01*
X4350004Y-175005D02*
G01*
X4360925Y-175005D01*
X4486909Y-49021D01*
X4350004Y-175005D02*
G01*
X4481829Y-175005D01*
X4486909Y-180086D01*
D11*
X4109974Y2089912D02*
G01*
X4486909Y1712976D01*
X4486909Y1474978D01*
D12*
X4355084Y1640839D02*
G01*
X4392422Y1678178D01*
X4392422Y1807463D01*
X3810000Y1094994D02*
G01*
X3810000Y1299971D01*
X3860038Y1350010D01*
X3899915Y1350010D02*
G01*
X3839972Y1409954D01*
X3839972Y1459992D01*
X3260090Y-945134D02*
G01*
X3295141Y-980186D01*
X3400552Y-980186D01*
D14*
X2925063Y-822452D02*
G01*
X3207258Y-822452D01*
X3260090Y-875284D01*
X3189986Y-945134D02*
G01*
X3067304Y-822452D01*
X3035045Y-822452D01*
X2249931Y-450087D02*
G01*
X2249931Y-570052D01*
X2154986Y-664997D01*
D12*
X1774952Y-110489D02*
G01*
X1774952Y-55118D01*
X1850389Y20320D01*
X1990089Y20320D01*
D14*
X1774952Y-110489D02*
G01*
X1774952Y5079D01*
X1605026Y175260D01*
X1064260Y175260D01*
X1260094Y175005D02*
G01*
X1064260Y370839D01*
X1064260Y379984D01*
X1260094Y175005D02*
G01*
X1064260Y-20828D01*
X1064260Y-74929D01*
D12*
X1990089Y20320D02*
G01*
X1759712Y20320D01*
X1747520Y32512D01*
D15*
X3978909Y1474978D02*
G01*
X4232909Y1474978D01*
X3978909Y1220978D02*
G01*
X4232909Y1220978D01*
X3978909Y966978D02*
G01*
X4232909Y966978D01*
X3978909Y712978D02*
G01*
X4232909Y712978D01*
X3978909Y458978D02*
G01*
X4232909Y458978D01*
X3978909Y204978D02*
G01*
X4232909Y204978D01*
X3978909Y-49021D02*
G01*
X4232909Y-49021D01*
X3978909Y-303021D02*
G01*
X4232909Y-303021D01*
D16*
X650494Y-1757171D02*
G01*
X650112Y-1889937D01*
X649986Y-1083310D02*
G01*
X650011Y-919987D01*
X650011Y-919987D02*
G01*
X650011Y-850264D01*
X649986Y-1237234D02*
G01*
X650011Y-1369999D01*
X935253Y-1720342D02*
G01*
X934999Y-1999995D01*
X2180336Y-620268D02*
G01*
X2176779Y-616712D01*
X2020062Y-616712D01*
X249936Y-1599945D02*
G01*
X253237Y-1603247D01*
X651002Y-1603247D01*
X3150108Y-1449831D02*
G01*
X3074924Y-1525015D01*
X765047Y-1525015D01*
D12*
X2390394Y-1771395D02*
G01*
X2581402Y-1771395D01*
X2690113Y-1880107D01*
X2390394Y-1771395D02*
G01*
X2724988Y-2105990D01*
X2724988Y-2150008D01*
D18*
G01*
X933170Y-1720621D03*
G01*
X1087323Y-1720113D03*
D19*
G01*
X649452Y-1083284D03*
G01*
X649960Y-1237411D03*
G01*
X2590571Y833069D03*
G01*
X2590063Y987221D03*
G01*
X1985289Y353517D03*
G01*
X1984781Y507669D03*
D20*
G01*
X2450084Y500126D03*
G01*
X2450084Y-279D03*
D19*
G01*
X2925597Y347929D03*
G01*
X2925089Y502081D03*
G01*
X2925597Y-7162D03*
G01*
X2925089Y146989D03*
D20*
G01*
X3400043Y500913D03*
G01*
X3400043Y507D03*
D19*
G01*
X1990623Y-133654D03*
G01*
X1990115Y20497D03*
G36*
X1040409Y-2230628D02*
G01*
X1133398Y-2230628D01*
X1133398Y-2328621D01*
X1040409Y-2328621D01*
G37*
G36*
X886256Y-2230628D02*
G01*
X979246Y-2230628D01*
X979246Y-2328621D01*
X886256Y-2328621D01*
G37*
D18*
G01*
X932916Y-2000275D03*
G01*
X1087069Y-2000275D03*
D19*
G01*
X650468Y-1603222D03*
G01*
X650468Y-1757375D03*
D21*
G01*
X2390394Y-1771395D03*
G01*
X2390902Y-2243836D03*
D22*
G01*
X1690878Y-2007615D03*
G36*
X1370076Y599490D02*
G01*
X1720087Y599490D01*
X1720087Y379476D01*
X1370076Y379476D01*
G37*
D24*
G01*
X1545081Y-110515D03*
G36*
X1725066Y-507D02*
G01*
X1825066Y-507D01*
X1825066Y-220522D01*
X1725066Y-220522D01*
G37*
G36*
X1265072Y-507D02*
G01*
X1365072Y-507D01*
X1365072Y-220522D01*
X1265072Y-220522D01*
G37*
D19*
G01*
X2019528Y-462762D03*
G01*
X2020036Y-616915D03*
D20*
G01*
X1530095Y-479805D03*
G01*
X1530095Y-980211D03*
D19*
G01*
X2020341Y-977188D03*
G01*
X2019833Y-823036D03*
D23*
G01*
X2479802Y-1050061D03*
G36*
X2429814Y-340055D02*
G01*
X2529814Y-340055D01*
X2529814Y-560070D01*
X2429814Y-560070D01*
G37*
D24*
G01*
X2249830Y-450062D03*
G01*
X2709799Y-450062D03*
D19*
G01*
X2924530Y-668502D03*
G01*
X2925038Y-822655D03*
D20*
G01*
X3400552Y-980211D03*
G01*
X3400552Y-479805D03*
D25*
G01*
X3140202Y-1449882D03*
G01*
X3140202Y-2230170D03*
D26*
G01*
X2109978Y1894078D03*
D27*
G01*
X2363978Y893318D03*
G01*
X1855978Y893318D03*
G01*
X2109978Y893318D03*
D26*
G01*
X3240024Y1893062D03*
D27*
G01*
X3494024Y892302D03*
G01*
X2986024Y892302D03*
G01*
X3240024Y892302D03*
G36*
X915162Y-1340104D02*
G01*
X1094994Y-1340104D01*
X1094994Y-1450086D01*
X915162Y-1450086D01*
G37*
G36*
X3515106Y1210055D02*
G01*
X3590036Y1210055D01*
X3590036Y1105153D01*
X3515106Y1105153D01*
G37*
G36*
X3590036Y1255013D02*
G01*
X3800094Y1255013D01*
X3800094Y1109979D01*
X3590036Y1109979D01*
G37*
G36*
X3150108Y-830071D02*
G01*
X3475228Y-830071D01*
X3475228Y-1130045D01*
X3150108Y-1130045D01*
G37*
G36*
X2044954Y-569976D02*
G01*
X2299970Y-569976D01*
X2299970Y-800100D01*
X2044954Y-800100D01*
G37*
G36*
X2199894Y-530097D02*
G01*
X2299970Y-530097D01*
X2299970Y-630173D01*
X2199894Y-630173D01*
G37*
D28*
G01*
X5336031Y-318007D03*
D29*
G01*
X5590031Y-318007D03*
G01*
X5844031Y-318007D03*
G01*
X5336031Y-572007D03*
G01*
X5590031Y-572007D03*
G01*
X5844031Y-572007D03*
G01*
X5336031Y-826007D03*
G01*
X5590031Y-826007D03*
G01*
X5844031Y-826007D03*
G01*
X5336031Y-1080007D03*
G01*
X5590031Y-1080007D03*
G01*
X5844031Y-1080007D03*
G01*
X5336031Y-1334007D03*
G01*
X5590031Y-1334007D03*
G01*
X5844031Y-1334007D03*
G01*
X5336031Y-1588007D03*
G01*
X5590031Y-1588007D03*
G01*
X5844031Y-1588007D03*
G01*
X5336031Y-1842007D03*
G01*
X5590031Y-1842007D03*
G01*
X5844031Y-1842007D03*
D28*
G01*
X5336031Y800862D03*
D29*
G01*
X5590031Y800862D03*
G01*
X5844031Y800862D03*
G01*
X5336031Y546862D03*
G01*
X5590031Y546862D03*
G01*
X5844031Y546862D03*
G01*
X5336031Y292862D03*
G01*
X5590031Y292862D03*
G01*
X5844031Y292862D03*
G01*
X5336031Y38862D03*
G01*
X5590031Y38862D03*
G01*
X5844031Y38862D03*
G36*
X4484903Y2214905D02*
G01*
X4734890Y2214905D01*
X4734890Y1964918D01*
X4484903Y1964918D01*
G37*
D31*
G01*
X4109974Y2089912D03*
D30*
G01*
X5620004Y1230071D03*
D31*
G01*
X5620004Y1729994D03*
D32*
G01*
X729995Y-383031D03*
D11*
G01*
X729995Y-637031D03*
D33*
G01*
X400050Y679704D03*
D34*
G01*
X400050Y179831D03*
D35*
G01*
X4740909Y1474978D03*
D36*
G01*
X4486909Y1474978D03*
G01*
X4232909Y1474978D03*
G01*
X3978909Y1474978D03*
G01*
X4740909Y1220978D03*
G01*
X4486909Y1220978D03*
G01*
X4232909Y1220978D03*
G01*
X3978909Y1220978D03*
G01*
X4740909Y966978D03*
G01*
X4486909Y966978D03*
G01*
X4232909Y966978D03*
G01*
X3978909Y966978D03*
G01*
X4740909Y712978D03*
G01*
X4486909Y712978D03*
G01*
X4232909Y712978D03*
G01*
X3978909Y712978D03*
G01*
X4740909Y458978D03*
G01*
X4486909Y458978D03*
G01*
X4232909Y458978D03*
G01*
X3978909Y458978D03*
G01*
X4232909Y-811021D03*
G01*
X4486909Y-811021D03*
G01*
X4740909Y-811021D03*
G01*
X3978909Y-557021D03*
G01*
X4232909Y-557021D03*
G01*
X4486909Y-557021D03*
G01*
X4740909Y-557021D03*
G01*
X3978909Y-303021D03*
G01*
X4232909Y-303021D03*
G01*
X4486909Y-303021D03*
G01*
X4740909Y-303021D03*
G01*
X3978909Y-49021D03*
G01*
X4232909Y-49021D03*
G01*
X4486909Y-49021D03*
G01*
X4740909Y-49021D03*
G01*
X3978909Y204978D03*
G01*
X4232909Y204978D03*
G01*
X4486909Y204978D03*
G01*
X4740909Y204978D03*
G01*
X3978909Y-811021D03*
G01*
X4740909Y-1065021D03*
G01*
X4486909Y-1065021D03*
G01*
X4232909Y-1065021D03*
G01*
X3978909Y-1065021D03*
G01*
X4740909Y-1319021D03*
G01*
X4486909Y-1319021D03*
G01*
X4232909Y-1319021D03*
G01*
X3978909Y-1319021D03*
G01*
X4740909Y-1573021D03*
G01*
X4486909Y-1573021D03*
G01*
X4232909Y-1573021D03*
G01*
X3978909Y-1573021D03*
G01*
X4740909Y-1827021D03*
G01*
X4486909Y-1827021D03*
G01*
X4232909Y-1827021D03*
G01*
X3978909Y-1827021D03*
G01*
X4740909Y-2081021D03*
G01*
X4486909Y-2081021D03*
G01*
X4232909Y-2081021D03*
G01*
X3978909Y-2081021D03*
G01*
X4740909Y-2335021D03*
G01*
X4486909Y-2335021D03*
G01*
X4232909Y-2335021D03*
G01*
X3978909Y-2335021D03*
D11*
G01*
X249936Y-1200150D03*
G01*
X249936Y-1400047D03*
G01*
X249936Y-1599945D03*
D16*
G01*
X3260090Y-875284D03*
G01*
X3260090Y-945134D03*
G01*
X3260090Y-1015237D03*
G01*
X3260090Y-1085087D03*
G01*
X3189986Y-1085087D03*
G01*
X3189986Y-1014984D03*
G01*
X3189986Y-945134D03*
G01*
X3189986Y-875029D03*
G01*
X2250186Y-620268D03*
G01*
X2250186Y-690118D03*
G01*
X2250186Y-760221D03*
G01*
X2180336Y-760221D03*
G01*
X2180336Y-690118D03*
G01*
X2180336Y-620268D03*
G01*
X2614929Y715010D03*
G01*
X2544572Y715263D03*
G01*
X2754884Y-55118D03*
G01*
X2754884Y20065D03*
G01*
X2754884Y94995D03*
G01*
X2754884Y169926D03*
G01*
X2754884Y245110D03*
G01*
X2754884Y320039D03*
G01*
X2679954Y-55118D03*
G01*
X2605024Y-55118D03*
G01*
X2679954Y20065D03*
G01*
X2605024Y20065D03*
G01*
X2679954Y94995D03*
G01*
X2605024Y94995D03*
G01*
X2679954Y169926D03*
G01*
X2605024Y169926D03*
G01*
X2679954Y245110D03*
G01*
X2605024Y245110D03*
G01*
X2530093Y245110D03*
G01*
X2454909Y245110D03*
G01*
X2379979Y245110D03*
G01*
X2305050Y245110D03*
G01*
X2230120Y245110D03*
G01*
X2154936Y245110D03*
G01*
X2080005Y245110D03*
G01*
X1830323Y694944D03*
G01*
X1830070Y620013D03*
G01*
X1830070Y545084D03*
G01*
X1830070Y469900D03*
G01*
X1830070Y394970D03*
G01*
X1830070Y320039D03*
G01*
X1830070Y245110D03*
G01*
X2679954Y320039D03*
G01*
X3094990Y-55118D03*
G01*
X3169920Y-55118D03*
G01*
X3245104Y-55118D03*
G01*
X3094990Y20065D03*
G01*
X3169920Y20065D03*
G01*
X3245104Y20065D03*
G01*
X3095243Y264921D03*
G01*
X3095243Y339852D03*
G01*
X3170174Y339852D03*
G01*
X3170174Y414781D03*
G01*
X3095243Y414781D03*
G01*
X3095243Y489712D03*
G01*
X3170174Y489712D03*
G01*
X3095243Y564895D03*
G01*
X3095243Y639826D03*
G01*
X3095243Y714755D03*
G01*
X3020313Y714755D03*
G01*
X3020313Y639826D03*
G01*
X2945129Y714755D03*
G01*
X2690113Y-1880107D03*
G01*
X2690113Y-1955037D03*
G01*
X2690113Y-2029968D03*
G01*
X2690113Y-2104897D03*
G01*
X2690113Y-2180081D03*
G01*
X2690113Y-2255012D03*
G01*
X2690113Y-2329942D03*
G01*
X2690113Y-2405126D03*
G01*
X2765043Y-2405126D03*
G01*
X2839974Y-2405126D03*
G01*
X2914904Y-2405126D03*
G01*
X2990088Y-2405126D03*
G01*
X2990088Y-2329942D03*
G01*
X2914904Y-2329942D03*
G01*
X2839974Y-2329942D03*
G01*
X2765043Y-2329942D03*
G01*
X2765043Y-2255012D03*
G01*
X2839974Y-2255012D03*
G01*
X2914904Y-2255012D03*
G01*
X2990088Y-2255012D03*
G01*
X2990088Y-2180081D03*
G01*
X2914904Y-2180081D03*
G01*
X2839974Y-2180081D03*
G01*
X2765043Y-2180081D03*
G01*
X2765043Y-2104897D03*
G01*
X2839974Y-2104897D03*
G01*
X2914904Y-2104897D03*
G01*
X2990088Y-2104897D03*
G01*
X2990088Y-2029968D03*
G01*
X2914904Y-2029968D03*
G01*
X2839974Y-2029968D03*
G01*
X2765043Y-2029968D03*
G01*
X2765043Y-1955037D03*
G01*
X2839974Y-1955037D03*
G01*
X2914904Y-1955037D03*
G01*
X2990088Y-1955037D03*
G01*
X2765043Y-1880107D03*
G01*
X2839974Y-1880107D03*
G01*
X2914904Y-1880107D03*
G01*
X2990088Y-1880107D03*
G01*
X649986Y-850392D03*
G01*
X649986Y-919987D03*
G01*
X649986Y-1369821D03*
G01*
X649986Y-1890013D03*
G01*
X934973Y-1830070D03*
G01*
X934973Y-1890013D03*
G01*
X1450339Y-1810257D03*
G01*
X1525270Y-1810257D03*
G01*
X1450339Y-1885187D03*
G01*
X1450339Y-1960118D03*
G01*
X1450339Y-2035047D03*
G01*
X1450339Y-2110231D03*
G01*
X1450339Y-2185162D03*
G01*
X1525015Y-1884934D03*
G01*
X1525015Y-1960118D03*
G01*
X1525015Y-2035047D03*
G01*
X1525015Y-2109978D03*
G01*
X1525015Y-2184907D03*
G01*
X1599945Y-2184907D03*
G01*
X1675129Y-2184907D03*
G01*
X1750060Y-2184907D03*
G01*
X1824989Y-2184907D03*
G01*
X1899920Y-2184907D03*
G01*
X1599945Y-2109978D03*
G01*
X1675129Y-2109978D03*
G01*
X1750060Y-2109978D03*
G01*
X1824989Y-2109978D03*
G01*
X1599945Y-2035047D03*
G01*
X1675129Y-2035047D03*
G01*
X1750060Y-2035047D03*
G01*
X1599945Y-1960118D03*
G01*
X1675129Y-1960118D03*
G01*
X1599945Y-1884934D03*
G01*
X1714245Y2054860D03*
G01*
X1794255Y2054605D03*
G01*
X1874012Y2054605D03*
G01*
X1954021Y2054860D03*
G01*
X2035047Y2054860D03*
G01*
X2114804Y2054860D03*
G01*
X2194813Y2054860D03*
G01*
X2274823Y2054860D03*
G01*
X2354834Y2054860D03*
G01*
X2434844Y2054860D03*
G01*
X2514600Y2054605D03*
G01*
X1713737Y1975104D03*
G01*
X1793747Y1974850D03*
G01*
X1873504Y1974850D03*
G01*
X1953513Y1974850D03*
G01*
X2034794Y1975104D03*
G01*
X2114550Y1975104D03*
G01*
X2194560Y1975104D03*
G01*
X2274570Y1975104D03*
G01*
X2354579Y1975104D03*
G01*
X2434336Y1974850D03*
G01*
X2514091Y1974850D03*
G01*
X1713992Y1894839D03*
G01*
X1793747Y1894839D03*
G01*
X1873757Y1894839D03*
G01*
X1953513Y1894839D03*
G01*
X2034794Y1894839D03*
G01*
X2114550Y1894839D03*
G01*
X2194560Y1894839D03*
G01*
X2274570Y1894839D03*
G01*
X2354579Y1894839D03*
G01*
X2434336Y1894839D03*
G01*
X2514345Y1894839D03*
G01*
X1713737Y1814829D03*
G01*
X1793747Y1814576D03*
G01*
X1873504Y1814576D03*
G01*
X1953513Y1814829D03*
G01*
X2034539Y1814829D03*
G01*
X2114295Y1814829D03*
G01*
X2194305Y1814829D03*
G01*
X2274315Y1814829D03*
G01*
X2354326Y1814829D03*
G01*
X2434336Y1814829D03*
G01*
X2514091Y1814576D03*
G01*
X1713737Y1734820D03*
G01*
X1793747Y1734565D03*
G01*
X1873504Y1734565D03*
G01*
X1953513Y1734820D03*
G01*
X2034794Y1734820D03*
G01*
X2114550Y1734820D03*
G01*
X2194560Y1734820D03*
G01*
X2274315Y1734820D03*
G01*
X2354326Y1734820D03*
G01*
X2434336Y1734820D03*
G01*
X2514091Y1734565D03*
G01*
X1713737Y1655063D03*
G01*
X1793747Y1654810D03*
G01*
X1873504Y1654810D03*
G01*
X1953513Y1654810D03*
G01*
X2034539Y1655063D03*
G01*
X2114295Y1655063D03*
G01*
X2194305Y1655063D03*
G01*
X2274315Y1655063D03*
G01*
X2354326Y1655063D03*
G01*
X2434336Y1654810D03*
G01*
X2514091Y1654810D03*
G01*
X1713737Y1574800D03*
G01*
X1793747Y1574545D03*
G01*
X1873504Y1574545D03*
G01*
X1953513Y1574800D03*
G01*
X2034794Y1574800D03*
G01*
X2114550Y1574800D03*
G01*
X2194560Y1574800D03*
G01*
X2274315Y1574800D03*
G01*
X2354326Y1574800D03*
G01*
X2434336Y1574800D03*
G01*
X2514091Y1574545D03*
G01*
X1713737Y1494789D03*
G01*
X1793747Y1494789D03*
G01*
X1873504Y1494789D03*
G01*
X1953513Y1494789D03*
G01*
X2034539Y1494789D03*
G01*
X2114295Y1494789D03*
G01*
X2194305Y1494789D03*
G01*
X2274315Y1494789D03*
G01*
X2354326Y1494789D03*
G01*
X2434336Y1494789D03*
G01*
X2514091Y1494789D03*
G01*
X2841497Y2060955D03*
G01*
X2921254Y2060702D03*
G01*
X3001263Y2060702D03*
G01*
X3081020Y2060955D03*
G01*
X3162300Y2060955D03*
G01*
X3242056Y2060955D03*
G01*
X3322065Y2060955D03*
G01*
X3402075Y2060955D03*
G01*
X3482086Y2060955D03*
G01*
X3561841Y2060955D03*
G01*
X3641852Y2060702D03*
G01*
X2840990Y1981200D03*
G01*
X2921000Y1980945D03*
G01*
X3000756Y1980945D03*
G01*
X3080765Y1980945D03*
G01*
X3161791Y1981200D03*
G01*
X3241547Y1981200D03*
G01*
X3321558Y1981200D03*
G01*
X3401568Y1981200D03*
G01*
X3481577Y1981200D03*
G01*
X3561588Y1980945D03*
G01*
X3641343Y1980945D03*
G01*
X2840990Y1900936D03*
G01*
X2921000Y1900936D03*
G01*
X3000756Y1900936D03*
G01*
X3080765Y1900936D03*
G01*
X3162045Y1900936D03*
G01*
X3241802Y1900936D03*
G01*
X3321558Y1900936D03*
G01*
X3401568Y1900936D03*
G01*
X3481577Y1900936D03*
G01*
X3561588Y1900936D03*
G01*
X3641343Y1900936D03*
G01*
X2840990Y1820926D03*
G01*
X2920745Y1820671D03*
G01*
X3000756Y1820671D03*
G01*
X3080511Y1820926D03*
G01*
X3161791Y1820926D03*
G01*
X3241547Y1820926D03*
G01*
X3321558Y1820926D03*
G01*
X3401568Y1820926D03*
G01*
X3481577Y1820926D03*
G01*
X3561334Y1820926D03*
G01*
X2840990Y1740915D03*
G01*
X2921000Y1740662D03*
G01*
X3000756Y1740662D03*
G01*
X3080765Y1740915D03*
G01*
X3161791Y1740915D03*
G01*
X3241547Y1740915D03*
G01*
X3321558Y1740915D03*
G01*
X3401568Y1740915D03*
G01*
X3481577Y1740915D03*
G01*
X2840990Y1661160D03*
G01*
X2920745Y1660905D03*
G01*
X3000756Y1660905D03*
G01*
X3080511Y1660905D03*
G01*
X3161791Y1661160D03*
G01*
X3241547Y1661160D03*
G01*
X3321558Y1661160D03*
G01*
X3401568Y1661160D03*
G01*
X2840990Y1580895D03*
G01*
X2921000Y1580642D03*
G01*
X3000756Y1580642D03*
G01*
X3080765Y1580642D03*
G01*
X3161791Y1580895D03*
G01*
X3241547Y1580895D03*
G01*
X3321558Y1580895D03*
G01*
X2840990Y1500886D03*
G01*
X2920745Y1500886D03*
G01*
X3000756Y1500886D03*
G01*
X3080511Y1500886D03*
G01*
X3161791Y1500886D03*
G01*
X3241547Y1500886D03*
D15*
X279941Y-1815084D02*
G01*
X219930Y-1815084D01*
X279941Y-985012D02*
G01*
X219930Y-985012D01*
X1430020Y1559836D02*
G01*
X1430020Y1339827D01*
X810005Y1559836D02*
G01*
X810005Y1339827D01*
X1010135Y979931D02*
G01*
X1230144Y979931D01*
M02*
