G04 Layer: BottomSolderMaskLayer*
G04 EasyEDA v6.4.19.5, 2021-05-27T17:32:06+08:00*
G04 33a6c8c822a742f28e1fac3212fc467e,cef4b8211a074a3184fc3ad01c494734,10*
G04 Gerber Generator version 0.2*
G04 Scale: 100 percent, Rotated: No, Reflected: No *
G04 Dimensions in millimeters *
G04 leading zeros omitted , absolute positions ,4 integer and 5 decimal *
%FSLAX45Y45*%
%MOMM*%

%ADD44C,1.4031*%
%ADD53C,1.7232*%
%ADD55C,2.7032*%
%ADD57C,1.7032*%
%ADD59C,2.4032*%
%ADD60R,1.5032X1.5032*%
%ADD61C,1.5032*%

%LPD*%
G36*
X1399997Y-1750009D02*
G01*
X1399997Y-2250033D01*
X1970024Y-2250033D01*
X1970024Y-2145030D01*
X1599996Y-1750009D01*
G37*
G36*
X2775000Y2119985D02*
G01*
X2775000Y1434998D01*
X3300018Y1434998D01*
X3699967Y1849983D01*
X3699967Y2119985D01*
G37*
D44*
X279941Y-1815084D02*
G01*
X219930Y-1815084D01*
X279941Y-985012D02*
G01*
X219930Y-985012D01*
X1430020Y1559836D02*
G01*
X1430020Y1339827D01*
X810005Y1559836D02*
G01*
X810005Y1339827D01*
X1010135Y979931D02*
G01*
X1230144Y979931D01*
G36*
X5249925Y-404113D02*
G01*
X5249925Y-231902D01*
X5422138Y-231902D01*
X5422138Y-404113D01*
G37*
D53*
G01*
X5590031Y-318007D03*
G01*
X5844031Y-318007D03*
G01*
X5336031Y-572007D03*
G01*
X5590031Y-572007D03*
G01*
X5844031Y-572007D03*
G01*
X5336031Y-826007D03*
G01*
X5590031Y-826007D03*
G01*
X5844031Y-826007D03*
G01*
X5336031Y-1080007D03*
G01*
X5590031Y-1080007D03*
G01*
X5844031Y-1080007D03*
G01*
X5336031Y-1334007D03*
G01*
X5590031Y-1334007D03*
G01*
X5844031Y-1334007D03*
G01*
X5336031Y-1588007D03*
G01*
X5590031Y-1588007D03*
G01*
X5844031Y-1588007D03*
G01*
X5336031Y-1842007D03*
G01*
X5590031Y-1842007D03*
G01*
X5844031Y-1842007D03*
G36*
X5249925Y714755D02*
G01*
X5249925Y886968D01*
X5422138Y886968D01*
X5422138Y714755D01*
G37*
G01*
X5590031Y800862D03*
G01*
X5844031Y800862D03*
G01*
X5336031Y546862D03*
G01*
X5590031Y546862D03*
G01*
X5844031Y546862D03*
G01*
X5336031Y292862D03*
G01*
X5590031Y292862D03*
G01*
X5844031Y292862D03*
G01*
X5336031Y38862D03*
G01*
X5590031Y38862D03*
G01*
X5844031Y38862D03*
G36*
X4474718Y1954784D02*
G01*
X4474718Y2225039D01*
X4744974Y2225039D01*
X4744974Y1954784D01*
G37*
D55*
G01*
X4109974Y2089912D03*
G36*
X5484875Y1094994D02*
G01*
X5484875Y1365250D01*
X5755131Y1365250D01*
X5755131Y1094994D01*
G37*
G01*
X5620004Y1729994D03*
G36*
X644905Y-468121D02*
G01*
X644905Y-297942D01*
X815086Y-297942D01*
X815086Y-468121D01*
G37*
D57*
G01*
X729995Y-637031D03*
G36*
X279907Y544576D02*
G01*
X279907Y814831D01*
X520192Y814831D01*
X520192Y544576D01*
G37*
D59*
G01*
X400050Y179831D03*
D60*
G01*
X4740909Y1474978D03*
D61*
G01*
X4486909Y1474978D03*
G01*
X4232909Y1474978D03*
G01*
X3978909Y1474978D03*
G01*
X4740909Y1220978D03*
G01*
X4486909Y1220978D03*
G01*
X4232909Y1220978D03*
G01*
X3978909Y1220978D03*
G01*
X4740909Y966978D03*
G01*
X4486909Y966978D03*
G01*
X4232909Y966978D03*
G01*
X3978909Y966978D03*
G01*
X4740909Y712978D03*
G01*
X4486909Y712978D03*
G01*
X4232909Y712978D03*
G01*
X3978909Y712978D03*
G01*
X4740909Y458978D03*
G01*
X4486909Y458978D03*
G01*
X4232909Y458978D03*
G01*
X3978909Y458978D03*
G01*
X4232909Y-811021D03*
G01*
X4486909Y-811021D03*
G01*
X4740909Y-811021D03*
G01*
X3978909Y-557021D03*
G01*
X4232909Y-557021D03*
G01*
X4486909Y-557021D03*
G01*
X4740909Y-557021D03*
G01*
X3978909Y-303021D03*
G01*
X4232909Y-303021D03*
G01*
X4486909Y-303021D03*
G01*
X4740909Y-303021D03*
G01*
X3978909Y-49021D03*
G01*
X4232909Y-49021D03*
G01*
X4486909Y-49021D03*
G01*
X4740909Y-49021D03*
G01*
X3978909Y204978D03*
G01*
X4232909Y204978D03*
G01*
X4486909Y204978D03*
G01*
X4740909Y204978D03*
G01*
X3978909Y-811021D03*
G01*
X4740909Y-1065021D03*
G01*
X4486909Y-1065021D03*
G01*
X4232909Y-1065021D03*
G01*
X3978909Y-1065021D03*
G01*
X4740909Y-1319021D03*
G01*
X4486909Y-1319021D03*
G01*
X4232909Y-1319021D03*
G01*
X3978909Y-1319021D03*
G01*
X4740909Y-1573021D03*
G01*
X4486909Y-1573021D03*
G01*
X4232909Y-1573021D03*
G01*
X3978909Y-1573021D03*
G01*
X4740909Y-1827021D03*
G01*
X4486909Y-1827021D03*
G01*
X4232909Y-1827021D03*
G01*
X3978909Y-1827021D03*
G01*
X4740909Y-2081021D03*
G01*
X4486909Y-2081021D03*
G01*
X4232909Y-2081021D03*
G01*
X3978909Y-2081021D03*
G01*
X4740909Y-2335021D03*
G01*
X4486909Y-2335021D03*
G01*
X4232909Y-2335021D03*
G01*
X3978909Y-2335021D03*
D57*
G01*
X249936Y-1200150D03*
G01*
X249936Y-1400047D03*
G01*
X249936Y-1599945D03*
G36*
X1634997Y2119884D02*
G01*
X2584957Y2119884D01*
X2584957Y1424939D01*
X1634997Y1424939D01*
G37*
M02*
