G04 Layer: TopSolderMaskLayer*
G04 EasyEDA v6.4.19.5, 2021-05-27T17:32:06+08:00*
G04 33a6c8c822a742f28e1fac3212fc467e,cef4b8211a074a3184fc3ad01c494734,10*
G04 Gerber Generator version 0.2*
G04 Scale: 100 percent, Rotated: No, Reflected: No *
G04 Dimensions in millimeters *
G04 leading zeros omitted , absolute positions ,4 integer and 5 decimal *
%FSLAX45Y45*%
%MOMM*%

%ADD44C,1.4031*%
%ADD53C,1.7232*%
%ADD55C,2.7032*%
%ADD57C,1.7032*%
%ADD59C,2.4032*%
%ADD60R,1.5032X1.5032*%
%ADD61C,1.5032*%

%LPD*%
D44*
X279941Y-1815084D02*
G01*
X219930Y-1815084D01*
X279941Y-985012D02*
G01*
X219930Y-985012D01*
X1430020Y1559836D02*
G01*
X1430020Y1339827D01*
X810005Y1559836D02*
G01*
X810005Y1339827D01*
X1010135Y979931D02*
G01*
X1230144Y979931D01*
G36*
X876554Y-1779778D02*
G01*
X876554Y-1661413D01*
X989837Y-1661413D01*
X989837Y-1779778D01*
G37*
G36*
X1030731Y-1779270D02*
G01*
X1030731Y-1660905D01*
X1144015Y-1660905D01*
X1144015Y-1779270D01*
G37*
G36*
X590295Y-1139952D02*
G01*
X590295Y-1026668D01*
X708660Y-1026668D01*
X708660Y-1139952D01*
G37*
G36*
X590804Y-1294129D02*
G01*
X590804Y-1180845D01*
X709168Y-1180845D01*
X709168Y-1294129D01*
G37*
G36*
X2531363Y776478D02*
G01*
X2531363Y889762D01*
X2649727Y889762D01*
X2649727Y776478D01*
G37*
G36*
X2530856Y930655D02*
G01*
X2530856Y1043939D01*
X2649220Y1043939D01*
X2649220Y930655D01*
G37*
G36*
X1926081Y296926D02*
G01*
X1926081Y410210D01*
X2044445Y410210D01*
X2044445Y296926D01*
G37*
G36*
X1925573Y451104D02*
G01*
X1925573Y564387D01*
X2043937Y564387D01*
X2043937Y451104D01*
G37*
G36*
X2364994Y339852D02*
G01*
X2364994Y660400D01*
X2535174Y660400D01*
X2535174Y339852D01*
G37*
G36*
X2364994Y-160528D02*
G01*
X2364994Y159765D01*
X2535174Y159765D01*
X2535174Y-160528D01*
G37*
G36*
X2866390Y291337D02*
G01*
X2866390Y404621D01*
X2984754Y404621D01*
X2984754Y291337D01*
G37*
G36*
X2865881Y445515D02*
G01*
X2865881Y558800D01*
X2984245Y558800D01*
X2984245Y445515D01*
G37*
G36*
X2866390Y-63754D02*
G01*
X2866390Y49529D01*
X2984754Y49529D01*
X2984754Y-63754D01*
G37*
G36*
X2865881Y90423D02*
G01*
X2865881Y203707D01*
X2984245Y203707D01*
X2984245Y90423D01*
G37*
G36*
X3314954Y340613D02*
G01*
X3314954Y661162D01*
X3485134Y661162D01*
X3485134Y340613D01*
G37*
G36*
X3314954Y-159765D02*
G01*
X3314954Y160528D01*
X3485134Y160528D01*
X3485134Y-159765D01*
G37*
G36*
X1931415Y-190245D02*
G01*
X1931415Y-76962D01*
X2049779Y-76962D01*
X2049779Y-190245D01*
G37*
G36*
X1930907Y-36068D02*
G01*
X1930907Y77215D01*
X2049271Y77215D01*
X2049271Y-36068D01*
G37*
G36*
X1030223Y-2338831D02*
G01*
X1030223Y-2220468D01*
X1143507Y-2220468D01*
X1143507Y-2338831D01*
G37*
G36*
X876045Y-2338831D02*
G01*
X876045Y-2220468D01*
X989329Y-2220468D01*
X989329Y-2338831D01*
G37*
G36*
X876300Y-2059431D02*
G01*
X876300Y-1941068D01*
X989584Y-1941068D01*
X989584Y-2059431D01*
G37*
G36*
X1030478Y-2059431D02*
G01*
X1030478Y-1941068D01*
X1143762Y-1941068D01*
X1143762Y-2059431D01*
G37*
G36*
X591312Y-1659889D02*
G01*
X591312Y-1546605D01*
X709676Y-1546605D01*
X709676Y-1659889D01*
G37*
G36*
X591312Y-1814068D02*
G01*
X591312Y-1700784D01*
X709676Y-1700784D01*
X709676Y-1814068D01*
G37*
G36*
X2270252Y-1841500D02*
G01*
X2270252Y-1701292D01*
X2510536Y-1701292D01*
X2510536Y-1841500D01*
G37*
G36*
X2270760Y-2313939D02*
G01*
X2270760Y-2173731D01*
X2511043Y-2173731D01*
X2511043Y-2313939D01*
G37*
G36*
X1355852Y-2317750D02*
G01*
X1355852Y-1697481D01*
X2026157Y-1697481D01*
X2026157Y-2317750D01*
G37*
G36*
X1359915Y369315D02*
G01*
X1359915Y609600D01*
X1730247Y609600D01*
X1730247Y369315D01*
G37*
G36*
X1484884Y-230631D02*
G01*
X1484884Y9652D01*
X1605279Y9652D01*
X1605279Y-230631D01*
G37*
G36*
X1715007Y-230631D02*
G01*
X1715007Y9652D01*
X1835150Y9652D01*
X1835150Y-230631D01*
G37*
G36*
X1255013Y-230631D02*
G01*
X1255013Y9652D01*
X1375155Y9652D01*
X1375155Y-230631D01*
G37*
G36*
X1960371Y-519429D02*
G01*
X1960371Y-406145D01*
X2078736Y-406145D01*
X2078736Y-519429D01*
G37*
G36*
X1960879Y-673607D02*
G01*
X1960879Y-560323D01*
X2079244Y-560323D01*
X2079244Y-673607D01*
G37*
G36*
X1445005Y-640079D02*
G01*
X1445005Y-319531D01*
X1615186Y-319531D01*
X1615186Y-640079D01*
G37*
G36*
X1445005Y-1140460D02*
G01*
X1445005Y-820165D01*
X1615186Y-820165D01*
X1615186Y-1140460D01*
G37*
G36*
X1961134Y-1033779D02*
G01*
X1961134Y-920495D01*
X2079497Y-920495D01*
X2079497Y-1033779D01*
G37*
G36*
X1960626Y-879602D02*
G01*
X1960626Y-766318D01*
X2078989Y-766318D01*
X2078989Y-879602D01*
G37*
G36*
X2294636Y-1170178D02*
G01*
X2294636Y-929894D01*
X2664968Y-929894D01*
X2664968Y-1170178D01*
G37*
G36*
X2419604Y-570229D02*
G01*
X2419604Y-329945D01*
X2540000Y-329945D01*
X2540000Y-570229D01*
G37*
G36*
X2189734Y-570229D02*
G01*
X2189734Y-329945D01*
X2309876Y-329945D01*
X2309876Y-570229D01*
G37*
G36*
X2649727Y-570229D02*
G01*
X2649727Y-329945D01*
X2769870Y-329945D01*
X2769870Y-570229D01*
G37*
G36*
X2865374Y-725170D02*
G01*
X2865374Y-611886D01*
X2983738Y-611886D01*
X2983738Y-725170D01*
G37*
G36*
X2865881Y-879347D02*
G01*
X2865881Y-766063D01*
X2984245Y-766063D01*
X2984245Y-879347D01*
G37*
G36*
X3315461Y-1140460D02*
G01*
X3315461Y-820165D01*
X3485641Y-820165D01*
X3485641Y-1140460D01*
G37*
G36*
X3315461Y-640079D02*
G01*
X3315461Y-319531D01*
X3485641Y-319531D01*
X3485641Y-640079D01*
G37*
G36*
X5249925Y-404113D02*
G01*
X5249925Y-231902D01*
X5422138Y-231902D01*
X5422138Y-404113D01*
G37*
D53*
G01*
X5590031Y-318007D03*
G01*
X5844031Y-318007D03*
G01*
X5336031Y-572007D03*
G01*
X5590031Y-572007D03*
G01*
X5844031Y-572007D03*
G01*
X5336031Y-826007D03*
G01*
X5590031Y-826007D03*
G01*
X5844031Y-826007D03*
G01*
X5336031Y-1080007D03*
G01*
X5590031Y-1080007D03*
G01*
X5844031Y-1080007D03*
G01*
X5336031Y-1334007D03*
G01*
X5590031Y-1334007D03*
G01*
X5844031Y-1334007D03*
G01*
X5336031Y-1588007D03*
G01*
X5590031Y-1588007D03*
G01*
X5844031Y-1588007D03*
G01*
X5336031Y-1842007D03*
G01*
X5590031Y-1842007D03*
G01*
X5844031Y-1842007D03*
G36*
X5249925Y714755D02*
G01*
X5249925Y886968D01*
X5422138Y886968D01*
X5422138Y714755D01*
G37*
G01*
X5590031Y800862D03*
G01*
X5844031Y800862D03*
G01*
X5336031Y546862D03*
G01*
X5590031Y546862D03*
G01*
X5844031Y546862D03*
G01*
X5336031Y292862D03*
G01*
X5590031Y292862D03*
G01*
X5844031Y292862D03*
G01*
X5336031Y38862D03*
G01*
X5590031Y38862D03*
G01*
X5844031Y38862D03*
G36*
X4474718Y1954784D02*
G01*
X4474718Y2225039D01*
X4744974Y2225039D01*
X4744974Y1954784D01*
G37*
D55*
G01*
X4109974Y2089912D03*
G36*
X5484875Y1094994D02*
G01*
X5484875Y1365250D01*
X5755131Y1365250D01*
X5755131Y1094994D01*
G37*
G01*
X5620004Y1729994D03*
G36*
X644905Y-468121D02*
G01*
X644905Y-297942D01*
X815086Y-297942D01*
X815086Y-468121D01*
G37*
D57*
G01*
X729995Y-637031D03*
G36*
X279907Y544576D02*
G01*
X279907Y814831D01*
X520192Y814831D01*
X520192Y544576D01*
G37*
D59*
G01*
X400050Y179831D03*
D60*
G01*
X4740909Y1474978D03*
D61*
G01*
X4486909Y1474978D03*
G01*
X4232909Y1474978D03*
G01*
X3978909Y1474978D03*
G01*
X4740909Y1220978D03*
G01*
X4486909Y1220978D03*
G01*
X4232909Y1220978D03*
G01*
X3978909Y1220978D03*
G01*
X4740909Y966978D03*
G01*
X4486909Y966978D03*
G01*
X4232909Y966978D03*
G01*
X3978909Y966978D03*
G01*
X4740909Y712978D03*
G01*
X4486909Y712978D03*
G01*
X4232909Y712978D03*
G01*
X3978909Y712978D03*
G01*
X4740909Y458978D03*
G01*
X4486909Y458978D03*
G01*
X4232909Y458978D03*
G01*
X3978909Y458978D03*
G01*
X4232909Y-811021D03*
G01*
X4486909Y-811021D03*
G01*
X4740909Y-811021D03*
G01*
X3978909Y-557021D03*
G01*
X4232909Y-557021D03*
G01*
X4486909Y-557021D03*
G01*
X4740909Y-557021D03*
G01*
X3978909Y-303021D03*
G01*
X4232909Y-303021D03*
G01*
X4486909Y-303021D03*
G01*
X4740909Y-303021D03*
G01*
X3978909Y-49021D03*
G01*
X4232909Y-49021D03*
G01*
X4486909Y-49021D03*
G01*
X4740909Y-49021D03*
G01*
X3978909Y204978D03*
G01*
X4232909Y204978D03*
G01*
X4486909Y204978D03*
G01*
X4740909Y204978D03*
G01*
X3978909Y-811021D03*
G01*
X4740909Y-1065021D03*
G01*
X4486909Y-1065021D03*
G01*
X4232909Y-1065021D03*
G01*
X3978909Y-1065021D03*
G01*
X4740909Y-1319021D03*
G01*
X4486909Y-1319021D03*
G01*
X4232909Y-1319021D03*
G01*
X3978909Y-1319021D03*
G01*
X4740909Y-1573021D03*
G01*
X4486909Y-1573021D03*
G01*
X4232909Y-1573021D03*
G01*
X3978909Y-1573021D03*
G01*
X4740909Y-1827021D03*
G01*
X4486909Y-1827021D03*
G01*
X4232909Y-1827021D03*
G01*
X3978909Y-1827021D03*
G01*
X4740909Y-2081021D03*
G01*
X4486909Y-2081021D03*
G01*
X4232909Y-2081021D03*
G01*
X3978909Y-2081021D03*
G01*
X4740909Y-2335021D03*
G01*
X4486909Y-2335021D03*
G01*
X4232909Y-2335021D03*
G01*
X3978909Y-2335021D03*
D57*
G01*
X249936Y-1200150D03*
G01*
X249936Y-1400047D03*
G01*
X249936Y-1599945D03*
G36*
X3040125Y-1679955D02*
G01*
X3040125Y-1219707D01*
X3240277Y-1219707D01*
X3240277Y-1679955D01*
G37*
G36*
X3040125Y-2460244D02*
G01*
X3040125Y-1999995D01*
X3240277Y-1999995D01*
X3240277Y-2460244D01*
G37*
G36*
X1593850Y1382776D02*
G01*
X1593850Y2405126D01*
X2626359Y2405126D01*
X2626359Y1382776D01*
G37*
G36*
X2278379Y732536D02*
G01*
X2278379Y1053845D01*
X2449829Y1053845D01*
X2449829Y732536D01*
G37*
G36*
X1770379Y732536D02*
G01*
X1770379Y1053845D01*
X1941829Y1053845D01*
X1941829Y732536D01*
G37*
G36*
X2024379Y732536D02*
G01*
X2024379Y1053845D01*
X2195829Y1053845D01*
X2195829Y732536D01*
G37*
G36*
X2723895Y1381760D02*
G01*
X2723895Y2404110D01*
X3756152Y2404110D01*
X3756152Y1381760D01*
G37*
G36*
X3408425Y731520D02*
G01*
X3408425Y1052829D01*
X3579875Y1052829D01*
X3579875Y731520D01*
G37*
G36*
X2900425Y731520D02*
G01*
X2900425Y1052829D01*
X3071875Y1052829D01*
X3071875Y731520D01*
G37*
G36*
X3154425Y731520D02*
G01*
X3154425Y1052829D01*
X3325875Y1052829D01*
X3325875Y731520D01*
G37*
M02*
